<mxfile host="app.diagrams.net" agent="Mozilla/5.0 (Windows NT 10.0; Win64; x64) AppleWebKit/537.36 (KHTML, like Gecko) Chrome/128.0.0.0 Safari/537.36 OPR/114.0.0.0" version="24.8.4">
  <diagram name="Halaman-1" id="qFcYQWc6SvK92dtECNUK">
    <mxGraphModel grid="0" page="0" gridSize="10" guides="1" tooltips="1" connect="1" arrows="1" fold="1" pageScale="1" pageWidth="850" pageHeight="1100" math="0" shadow="0">
      <root>
        <mxCell id="0" />
        <mxCell id="1" parent="0" />
        <mxCell id="tsbJRF9lCujZH73IOLlX-7" style="edgeStyle=none;curved=1;rounded=0;orthogonalLoop=1;jettySize=auto;html=1;fontSize=12;startSize=8;endSize=8;" edge="1" parent="1" source="tsbJRF9lCujZH73IOLlX-1" target="tsbJRF9lCujZH73IOLlX-2">
          <mxGeometry relative="1" as="geometry" />
        </mxCell>
        <mxCell id="tsbJRF9lCujZH73IOLlX-1" value="mulai" style="ellipse;whiteSpace=wrap;html=1;" vertex="1" parent="1">
          <mxGeometry x="140" y="160" width="120" height="80" as="geometry" />
        </mxCell>
        <mxCell id="tsbJRF9lCujZH73IOLlX-8" style="edgeStyle=none;curved=1;rounded=0;orthogonalLoop=1;jettySize=auto;html=1;fontSize=12;startSize=8;endSize=8;" edge="1" parent="1" source="tsbJRF9lCujZH73IOLlX-13" target="tsbJRF9lCujZH73IOLlX-3">
          <mxGeometry relative="1" as="geometry" />
        </mxCell>
        <mxCell id="tsbJRF9lCujZH73IOLlX-2" value="menu&lt;div&gt;1. login user&lt;/div&gt;&lt;div&gt;2. login admin&lt;/div&gt;&lt;div&gt;3.registrasi&lt;/div&gt;&lt;div&gt;4. keluar&lt;/div&gt;" style="shape=parallelogram;perimeter=parallelogramPerimeter;whiteSpace=wrap;html=1;fixedSize=1;" vertex="1" parent="1">
          <mxGeometry x="110.5" y="273" width="179" height="72" as="geometry" />
        </mxCell>
        <mxCell id="tsbJRF9lCujZH73IOLlX-9" style="edgeStyle=none;curved=1;rounded=0;orthogonalLoop=1;jettySize=auto;html=1;fontSize=12;startSize=8;endSize=8;" edge="1" parent="1" source="tsbJRF9lCujZH73IOLlX-3" target="tsbJRF9lCujZH73IOLlX-5">
          <mxGeometry relative="1" as="geometry" />
        </mxCell>
        <mxCell id="tsbJRF9lCujZH73IOLlX-33" style="edgeStyle=none;curved=1;rounded=0;orthogonalLoop=1;jettySize=auto;html=1;fontSize=12;startSize=8;endSize=8;" edge="1" parent="1" source="tsbJRF9lCujZH73IOLlX-3" target="tsbJRF9lCujZH73IOLlX-21">
          <mxGeometry relative="1" as="geometry" />
        </mxCell>
        <mxCell id="tsbJRF9lCujZH73IOLlX-66" value="ya" style="edgeLabel;html=1;align=center;verticalAlign=middle;resizable=0;points=[];fontSize=12;" connectable="0" vertex="1" parent="tsbJRF9lCujZH73IOLlX-33">
          <mxGeometry x="0.085" y="-3" relative="1" as="geometry">
            <mxPoint as="offset" />
          </mxGeometry>
        </mxCell>
        <mxCell id="tsbJRF9lCujZH73IOLlX-3" value="pil = 1" style="rhombus;whiteSpace=wrap;html=1;" vertex="1" parent="1">
          <mxGeometry x="160" y="512" width="80" height="80" as="geometry" />
        </mxCell>
        <mxCell id="tsbJRF9lCujZH73IOLlX-36" style="edgeStyle=none;curved=1;rounded=0;orthogonalLoop=1;jettySize=auto;html=1;fontSize=12;startSize=8;endSize=8;" edge="1" parent="1" source="tsbJRF9lCujZH73IOLlX-4">
          <mxGeometry relative="1" as="geometry">
            <mxPoint x="364" y="1149" as="targetPoint" />
          </mxGeometry>
        </mxCell>
        <mxCell id="tsbJRF9lCujZH73IOLlX-85" value="iya" style="edgeLabel;html=1;align=center;verticalAlign=middle;resizable=0;points=[];fontSize=12;" connectable="0" vertex="1" parent="tsbJRF9lCujZH73IOLlX-36">
          <mxGeometry x="-0.1704" y="2" relative="1" as="geometry">
            <mxPoint as="offset" />
          </mxGeometry>
        </mxCell>
        <mxCell id="tsbJRF9lCujZH73IOLlX-83" style="edgeStyle=none;curved=1;rounded=0;orthogonalLoop=1;jettySize=auto;html=1;fontSize=12;startSize=8;endSize=8;" edge="1" parent="1" source="tsbJRF9lCujZH73IOLlX-4" target="tsbJRF9lCujZH73IOLlX-82">
          <mxGeometry relative="1" as="geometry" />
        </mxCell>
        <mxCell id="tsbJRF9lCujZH73IOLlX-84" value="tidak" style="edgeLabel;html=1;align=center;verticalAlign=middle;resizable=0;points=[];fontSize=12;" connectable="0" vertex="1" parent="tsbJRF9lCujZH73IOLlX-83">
          <mxGeometry x="-0.3822" relative="1" as="geometry">
            <mxPoint as="offset" />
          </mxGeometry>
        </mxCell>
        <mxCell id="tsbJRF9lCujZH73IOLlX-4" value="pil = 4" style="rhombus;whiteSpace=wrap;html=1;" vertex="1" parent="1">
          <mxGeometry x="160" y="1109" width="80" height="80" as="geometry" />
        </mxCell>
        <mxCell id="tsbJRF9lCujZH73IOLlX-34" style="edgeStyle=none;curved=1;rounded=0;orthogonalLoop=1;jettySize=auto;html=1;fontSize=12;startSize=8;endSize=8;" edge="1" parent="1" source="tsbJRF9lCujZH73IOLlX-5">
          <mxGeometry relative="1" as="geometry">
            <mxPoint x="400" y="793" as="targetPoint" />
          </mxGeometry>
        </mxCell>
        <mxCell id="tsbJRF9lCujZH73IOLlX-67" value="ya" style="edgeLabel;html=1;align=center;verticalAlign=middle;resizable=0;points=[];fontSize=12;" connectable="0" vertex="1" parent="tsbJRF9lCujZH73IOLlX-34">
          <mxGeometry x="0.01" relative="1" as="geometry">
            <mxPoint as="offset" />
          </mxGeometry>
        </mxCell>
        <mxCell id="4O4_IYTXsJNH0Z4pezqd-2" value="" style="edgeStyle=none;curved=1;rounded=0;orthogonalLoop=1;jettySize=auto;html=1;fontSize=12;startSize=8;endSize=8;" edge="1" parent="1" source="tsbJRF9lCujZH73IOLlX-5" target="tsbJRF9lCujZH73IOLlX-26">
          <mxGeometry relative="1" as="geometry" />
        </mxCell>
        <mxCell id="tsbJRF9lCujZH73IOLlX-5" value="pil= 2" style="rhombus;whiteSpace=wrap;html=1;" vertex="1" parent="1">
          <mxGeometry x="160" y="753" width="80" height="80" as="geometry" />
        </mxCell>
        <mxCell id="tsbJRF9lCujZH73IOLlX-14" value="" style="edgeStyle=none;curved=1;rounded=0;orthogonalLoop=1;jettySize=auto;html=1;fontSize=12;startSize=8;endSize=8;" edge="1" parent="1" source="tsbJRF9lCujZH73IOLlX-2" target="tsbJRF9lCujZH73IOLlX-13">
          <mxGeometry relative="1" as="geometry">
            <mxPoint x="200" y="345" as="sourcePoint" />
            <mxPoint x="200" y="452" as="targetPoint" />
          </mxGeometry>
        </mxCell>
        <mxCell id="tsbJRF9lCujZH73IOLlX-13" value="PILIH OPSI&amp;nbsp;" style="shape=parallelogram;perimeter=parallelogramPerimeter;whiteSpace=wrap;html=1;fixedSize=1;" vertex="1" parent="1">
          <mxGeometry x="140" y="400" width="120" height="60" as="geometry" />
        </mxCell>
        <mxCell id="tsbJRF9lCujZH73IOLlX-21" value="Input &quot;username&amp;nbsp;&lt;br&gt;dan password&quot;" style="shape=parallelogram;perimeter=parallelogramPerimeter;whiteSpace=wrap;html=1;fixedSize=1;" vertex="1" parent="1">
          <mxGeometry x="321" y="522" width="132" height="60" as="geometry" />
        </mxCell>
        <mxCell id="tsbJRF9lCujZH73IOLlX-55" style="edgeStyle=none;curved=1;rounded=0;orthogonalLoop=1;jettySize=auto;html=1;fontSize=12;startSize=8;endSize=8;" edge="1" parent="1" source="tsbJRF9lCujZH73IOLlX-24" target="tsbJRF9lCujZH73IOLlX-46">
          <mxGeometry relative="1" as="geometry" />
        </mxCell>
        <mxCell id="tsbJRF9lCujZH73IOLlX-24" value="input &quot;usn dan&amp;nbsp;&lt;br&gt;password baru&quot;" style="shape=parallelogram;perimeter=parallelogramPerimeter;whiteSpace=wrap;html=1;fixedSize=1;" vertex="1" parent="1">
          <mxGeometry x="367" y="977" width="120" height="60" as="geometry" />
        </mxCell>
        <mxCell id="tsbJRF9lCujZH73IOLlX-35" style="edgeStyle=none;curved=1;rounded=0;orthogonalLoop=1;jettySize=auto;html=1;fontSize=12;startSize=8;endSize=8;" edge="1" parent="1" source="tsbJRF9lCujZH73IOLlX-26" target="tsbJRF9lCujZH73IOLlX-24">
          <mxGeometry relative="1" as="geometry" />
        </mxCell>
        <mxCell id="tsbJRF9lCujZH73IOLlX-68" value="ya" style="edgeLabel;html=1;align=center;verticalAlign=middle;resizable=0;points=[];fontSize=12;" connectable="0" vertex="1" parent="tsbJRF9lCujZH73IOLlX-35">
          <mxGeometry x="-0.0394" y="-3" relative="1" as="geometry">
            <mxPoint as="offset" />
          </mxGeometry>
        </mxCell>
        <mxCell id="4O4_IYTXsJNH0Z4pezqd-3" value="" style="edgeStyle=none;curved=1;rounded=0;orthogonalLoop=1;jettySize=auto;html=1;fontSize=12;startSize=8;endSize=8;" edge="1" parent="1" source="tsbJRF9lCujZH73IOLlX-26" target="tsbJRF9lCujZH73IOLlX-4">
          <mxGeometry relative="1" as="geometry" />
        </mxCell>
        <mxCell id="tsbJRF9lCujZH73IOLlX-26" value="pil = 3" style="rhombus;whiteSpace=wrap;html=1;" vertex="1" parent="1">
          <mxGeometry x="160" y="967" width="80" height="80" as="geometry" />
        </mxCell>
        <mxCell id="tsbJRF9lCujZH73IOLlX-53" style="edgeStyle=none;curved=1;rounded=0;orthogonalLoop=1;jettySize=auto;html=1;fontSize=12;startSize=8;endSize=8;" edge="1" parent="1" source="tsbJRF9lCujZH73IOLlX-38" target="tsbJRF9lCujZH73IOLlX-45">
          <mxGeometry relative="1" as="geometry" />
        </mxCell>
        <mxCell id="tsbJRF9lCujZH73IOLlX-38" value="Input &quot;username&amp;nbsp;&lt;br&gt;dan password &lt;br&gt;akun admin&quot;" style="shape=parallelogram;perimeter=parallelogramPerimeter;whiteSpace=wrap;html=1;fixedSize=1;" vertex="1" parent="1">
          <mxGeometry x="390" y="767" width="132" height="60" as="geometry" />
        </mxCell>
        <mxCell id="tsbJRF9lCujZH73IOLlX-58" style="edgeStyle=none;curved=1;rounded=0;orthogonalLoop=1;jettySize=auto;html=1;fontSize=12;startSize=8;endSize=8;" edge="1" parent="1" source="tsbJRF9lCujZH73IOLlX-39" target="tsbJRF9lCujZH73IOLlX-57">
          <mxGeometry relative="1" as="geometry" />
        </mxCell>
        <mxCell id="tsbJRF9lCujZH73IOLlX-39" value="Akun akan dicheck di json." style="shape=cylinder3;whiteSpace=wrap;html=1;boundedLbl=1;backgroundOutline=1;size=15;" vertex="1" parent="1">
          <mxGeometry x="617.37" y="512" width="87" height="80" as="geometry" />
        </mxCell>
        <mxCell id="tsbJRF9lCujZH73IOLlX-79" style="edgeStyle=none;curved=1;rounded=0;orthogonalLoop=1;jettySize=auto;html=1;fontSize=12;startSize=8;endSize=8;" edge="1" parent="1" source="tsbJRF9lCujZH73IOLlX-45" target="tsbJRF9lCujZH73IOLlX-78">
          <mxGeometry relative="1" as="geometry" />
        </mxCell>
        <mxCell id="tsbJRF9lCujZH73IOLlX-45" value="Akun admin akan dicheck di json" style="shape=cylinder3;whiteSpace=wrap;html=1;boundedLbl=1;backgroundOutline=1;size=15;" vertex="1" parent="1">
          <mxGeometry x="593" y="757" width="87" height="80" as="geometry" />
        </mxCell>
        <mxCell id="tsbJRF9lCujZH73IOLlX-91" style="edgeStyle=none;curved=1;rounded=0;orthogonalLoop=1;jettySize=auto;html=1;fontSize=12;startSize=8;endSize=8;" edge="1" parent="1" source="tsbJRF9lCujZH73IOLlX-46" target="tsbJRF9lCujZH73IOLlX-48">
          <mxGeometry relative="1" as="geometry" />
        </mxCell>
        <mxCell id="tsbJRF9lCujZH73IOLlX-46" value="validasi usn" style="shape=cylinder3;whiteSpace=wrap;html=1;boundedLbl=1;backgroundOutline=1;size=15;" vertex="1" parent="1">
          <mxGeometry x="584" y="967" width="87" height="80" as="geometry" />
        </mxCell>
        <mxCell id="tsbJRF9lCujZH73IOLlX-94" style="edgeStyle=none;curved=1;rounded=0;orthogonalLoop=1;jettySize=auto;html=1;fontSize=12;startSize=8;endSize=8;" edge="1" parent="1" source="tsbJRF9lCujZH73IOLlX-48" target="tsbJRF9lCujZH73IOLlX-93">
          <mxGeometry relative="1" as="geometry" />
        </mxCell>
        <mxCell id="tsbJRF9lCujZH73IOLlX-101" value="ya" style="edgeLabel;html=1;align=center;verticalAlign=middle;resizable=0;points=[];fontSize=12;" connectable="0" vertex="1" parent="tsbJRF9lCujZH73IOLlX-94">
          <mxGeometry x="-0.3253" y="-1" relative="1" as="geometry">
            <mxPoint as="offset" />
          </mxGeometry>
        </mxCell>
        <mxCell id="tsbJRF9lCujZH73IOLlX-95" style="edgeStyle=none;curved=1;rounded=0;orthogonalLoop=1;jettySize=auto;html=1;fontSize=12;startSize=8;endSize=8;" edge="1" parent="1" source="tsbJRF9lCujZH73IOLlX-48" target="tsbJRF9lCujZH73IOLlX-92">
          <mxGeometry relative="1" as="geometry" />
        </mxCell>
        <mxCell id="tsbJRF9lCujZH73IOLlX-96" value="tidak" style="edgeLabel;html=1;align=center;verticalAlign=middle;resizable=0;points=[];fontSize=12;" connectable="0" vertex="1" parent="tsbJRF9lCujZH73IOLlX-95">
          <mxGeometry x="-0.35" y="-3" relative="1" as="geometry">
            <mxPoint as="offset" />
          </mxGeometry>
        </mxCell>
        <mxCell id="tsbJRF9lCujZH73IOLlX-48" value="usn tersedia?&lt;div&gt;y/t&lt;/div&gt;" style="rhombus;whiteSpace=wrap;html=1;" vertex="1" parent="1">
          <mxGeometry x="757" y="967" width="91" height="87" as="geometry" />
        </mxCell>
        <mxCell id="tsbJRF9lCujZH73IOLlX-56" style="edgeStyle=none;curved=1;rounded=0;orthogonalLoop=1;jettySize=auto;html=1;entryX=0;entryY=0.5;entryDx=0;entryDy=0;entryPerimeter=0;fontSize=12;startSize=8;endSize=8;" edge="1" parent="1" source="tsbJRF9lCujZH73IOLlX-21" target="tsbJRF9lCujZH73IOLlX-39">
          <mxGeometry relative="1" as="geometry" />
        </mxCell>
        <mxCell id="tsbJRF9lCujZH73IOLlX-62" style="edgeStyle=none;curved=1;rounded=0;orthogonalLoop=1;jettySize=auto;html=1;fontSize=12;startSize=8;endSize=8;" edge="1" parent="1" source="tsbJRF9lCujZH73IOLlX-57" target="tsbJRF9lCujZH73IOLlX-61">
          <mxGeometry relative="1" as="geometry" />
        </mxCell>
        <mxCell id="tsbJRF9lCujZH73IOLlX-65" value="ya" style="edgeLabel;html=1;align=center;verticalAlign=middle;resizable=0;points=[];fontSize=12;" connectable="0" vertex="1" parent="tsbJRF9lCujZH73IOLlX-62">
          <mxGeometry x="-0.04" relative="1" as="geometry">
            <mxPoint as="offset" />
          </mxGeometry>
        </mxCell>
        <mxCell id="tsbJRF9lCujZH73IOLlX-70" style="edgeStyle=none;curved=1;rounded=0;orthogonalLoop=1;jettySize=auto;html=1;fontSize=12;startSize=8;endSize=8;" edge="1" parent="1" source="tsbJRF9lCujZH73IOLlX-57" target="tsbJRF9lCujZH73IOLlX-69">
          <mxGeometry relative="1" as="geometry" />
        </mxCell>
        <mxCell id="tsbJRF9lCujZH73IOLlX-71" value="ya" style="edgeLabel;html=1;align=center;verticalAlign=middle;resizable=0;points=[];fontSize=12;" connectable="0" vertex="1" parent="tsbJRF9lCujZH73IOLlX-70">
          <mxGeometry x="-0.0857" y="1" relative="1" as="geometry">
            <mxPoint as="offset" />
          </mxGeometry>
        </mxCell>
        <mxCell id="tsbJRF9lCujZH73IOLlX-75" value="tidak" style="edgeLabel;html=1;align=center;verticalAlign=middle;resizable=0;points=[];fontSize=12;" connectable="0" vertex="1" parent="tsbJRF9lCujZH73IOLlX-70">
          <mxGeometry x="-0.0204" y="-2" relative="1" as="geometry">
            <mxPoint as="offset" />
          </mxGeometry>
        </mxCell>
        <mxCell id="tsbJRF9lCujZH73IOLlX-57" value="login&amp;nbsp;&lt;br&gt;berhasil?" style="rhombus;whiteSpace=wrap;html=1;" vertex="1" parent="1">
          <mxGeometry x="787" y="512" width="80" height="80" as="geometry" />
        </mxCell>
        <mxCell id="tsbJRF9lCujZH73IOLlX-61" value="menu user" style="ellipse;whiteSpace=wrap;html=1;aspect=fixed;fillColor=#ffcd28;gradientColor=#ffa500;strokeColor=#d79b00;" vertex="1" parent="1">
          <mxGeometry x="951" y="512" width="80" height="80" as="geometry" />
        </mxCell>
        <mxCell id="tsbJRF9lCujZH73IOLlX-74" style="edgeStyle=none;curved=1;rounded=0;orthogonalLoop=1;jettySize=auto;html=1;fontSize=12;startSize=8;endSize=8;" edge="1" parent="1" source="tsbJRF9lCujZH73IOLlX-69" target="tsbJRF9lCujZH73IOLlX-73">
          <mxGeometry relative="1" as="geometry" />
        </mxCell>
        <mxCell id="tsbJRF9lCujZH73IOLlX-69" value="output&quot; usn dan password&lt;br&gt;anda salah" style="shape=parallelogram;perimeter=parallelogramPerimeter;whiteSpace=wrap;html=1;fixedSize=1;" vertex="1" parent="1">
          <mxGeometry x="762" y="633" width="131" height="60" as="geometry" />
        </mxCell>
        <mxCell id="tsbJRF9lCujZH73IOLlX-73" value="Main menu" style="ellipse;whiteSpace=wrap;html=1;aspect=fixed;fillColor=#008a00;fontColor=#ffffff;strokeColor=#005700;" vertex="1" parent="1">
          <mxGeometry x="951" y="623" width="80" height="80" as="geometry" />
        </mxCell>
        <mxCell id="bce6saLUcq6bkGVip8d0-63" style="edgeStyle=none;curved=1;rounded=0;orthogonalLoop=1;jettySize=auto;html=1;fontSize=12;startSize=8;endSize=8;" edge="1" parent="1" source="tsbJRF9lCujZH73IOLlX-76" target="tsbJRF9lCujZH73IOLlX-2">
          <mxGeometry relative="1" as="geometry" />
        </mxCell>
        <mxCell id="tsbJRF9lCujZH73IOLlX-76" value="Main menu" style="ellipse;whiteSpace=wrap;html=1;aspect=fixed;fillColor=#008a00;fontColor=#ffffff;strokeColor=#005700;" vertex="1" parent="1">
          <mxGeometry x="-13" y="269" width="80" height="80" as="geometry" />
        </mxCell>
        <mxCell id="tsbJRF9lCujZH73IOLlX-81" style="edgeStyle=none;curved=1;rounded=0;orthogonalLoop=1;jettySize=auto;html=1;entryX=0.5;entryY=0;entryDx=0;entryDy=0;fontSize=12;startSize=8;endSize=8;" edge="1" parent="1" source="tsbJRF9lCujZH73IOLlX-78" target="tsbJRF9lCujZH73IOLlX-80">
          <mxGeometry relative="1" as="geometry" />
        </mxCell>
        <mxCell id="tsbJRF9lCujZH73IOLlX-86" value="" style="edgeStyle=none;curved=1;rounded=0;orthogonalLoop=1;jettySize=auto;html=1;fontSize=12;startSize=8;endSize=8;" edge="1" parent="1" source="tsbJRF9lCujZH73IOLlX-78" target="tsbJRF9lCujZH73IOLlX-80">
          <mxGeometry relative="1" as="geometry" />
        </mxCell>
        <mxCell id="tsbJRF9lCujZH73IOLlX-87" value="tidak" style="edgeLabel;html=1;align=center;verticalAlign=middle;resizable=0;points=[];fontSize=12;" connectable="0" vertex="1" parent="tsbJRF9lCujZH73IOLlX-86">
          <mxGeometry x="-0.3641" y="-2" relative="1" as="geometry">
            <mxPoint as="offset" />
          </mxGeometry>
        </mxCell>
        <mxCell id="tsbJRF9lCujZH73IOLlX-89" style="edgeStyle=none;curved=1;rounded=0;orthogonalLoop=1;jettySize=auto;html=1;fontSize=12;startSize=8;endSize=8;" edge="1" parent="1" source="tsbJRF9lCujZH73IOLlX-78" target="tsbJRF9lCujZH73IOLlX-88">
          <mxGeometry relative="1" as="geometry" />
        </mxCell>
        <mxCell id="tsbJRF9lCujZH73IOLlX-90" value="ya" style="edgeLabel;html=1;align=center;verticalAlign=middle;resizable=0;points=[];fontSize=12;" connectable="0" vertex="1" parent="tsbJRF9lCujZH73IOLlX-89">
          <mxGeometry x="-0.023" y="2" relative="1" as="geometry">
            <mxPoint as="offset" />
          </mxGeometry>
        </mxCell>
        <mxCell id="tsbJRF9lCujZH73IOLlX-78" value="login admin berhasil?" style="rhombus;whiteSpace=wrap;html=1;" vertex="1" parent="1">
          <mxGeometry x="768" y="757" width="80" height="80" as="geometry" />
        </mxCell>
        <mxCell id="tsbJRF9lCujZH73IOLlX-80" value="output&quot; usn dan password&lt;br&gt;anda salah" style="shape=parallelogram;perimeter=parallelogramPerimeter;whiteSpace=wrap;html=1;fixedSize=1;" vertex="1" parent="1">
          <mxGeometry x="742.5" y="871" width="131" height="60" as="geometry" />
        </mxCell>
        <mxCell id="tsbJRF9lCujZH73IOLlX-82" value="Main menu" style="ellipse;whiteSpace=wrap;html=1;aspect=fixed;fillColor=#008a00;fontColor=#ffffff;strokeColor=#005700;" vertex="1" parent="1">
          <mxGeometry x="160" y="1224" width="80" height="80" as="geometry" />
        </mxCell>
        <mxCell id="tsbJRF9lCujZH73IOLlX-88" value="menu admin" style="ellipse;whiteSpace=wrap;html=1;aspect=fixed;fillColor=#bac8d3;strokeColor=#23445d;" vertex="1" parent="1">
          <mxGeometry x="951" y="757" width="80" height="80" as="geometry" />
        </mxCell>
        <mxCell id="tsbJRF9lCujZH73IOLlX-92" value="output&quot; meminta user untuk menginputkan &lt;br&gt;usn" style="shape=parallelogram;perimeter=parallelogramPerimeter;whiteSpace=wrap;html=1;fixedSize=1;" vertex="1" parent="1">
          <mxGeometry x="728.75" y="1096" width="147.5" height="60" as="geometry" />
        </mxCell>
        <mxCell id="tsbJRF9lCujZH73IOLlX-98" style="edgeStyle=none;curved=1;rounded=0;orthogonalLoop=1;jettySize=auto;html=1;fontSize=12;startSize=8;endSize=8;" edge="1" parent="1" source="tsbJRF9lCujZH73IOLlX-93" target="tsbJRF9lCujZH73IOLlX-97">
          <mxGeometry relative="1" as="geometry" />
        </mxCell>
        <mxCell id="tsbJRF9lCujZH73IOLlX-93" value="menyimpan usn dan password baru ke database" style="shape=cylinder3;whiteSpace=wrap;html=1;boundedLbl=1;backgroundOutline=1;size=15;" vertex="1" parent="1">
          <mxGeometry x="931" y="960" width="97" height="101" as="geometry" />
        </mxCell>
        <mxCell id="tsbJRF9lCujZH73IOLlX-100" style="edgeStyle=none;curved=1;rounded=0;orthogonalLoop=1;jettySize=auto;html=1;fontSize=12;startSize=8;endSize=8;" edge="1" parent="1" source="tsbJRF9lCujZH73IOLlX-97" target="tsbJRF9lCujZH73IOLlX-99">
          <mxGeometry relative="1" as="geometry" />
        </mxCell>
        <mxCell id="tsbJRF9lCujZH73IOLlX-97" value="output&quot;registrasi akun berhasil" style="shape=parallelogram;perimeter=parallelogramPerimeter;whiteSpace=wrap;html=1;fixedSize=1;" vertex="1" parent="1">
          <mxGeometry x="1100" y="980.5" width="145" height="60" as="geometry" />
        </mxCell>
        <mxCell id="tsbJRF9lCujZH73IOLlX-99" value="Main menu" style="ellipse;whiteSpace=wrap;html=1;aspect=fixed;fillColor=#008a00;fontColor=#ffffff;strokeColor=#005700;" vertex="1" parent="1">
          <mxGeometry x="1321" y="970.5" width="80" height="80" as="geometry" />
        </mxCell>
        <mxCell id="ca4IYZsGZd4kzJZ8MlDg-3" style="edgeStyle=none;curved=1;rounded=0;orthogonalLoop=1;jettySize=auto;html=1;fontSize=12;startSize=8;endSize=8;" edge="1" parent="1" source="tsbJRF9lCujZH73IOLlX-102" target="ca4IYZsGZd4kzJZ8MlDg-1">
          <mxGeometry relative="1" as="geometry" />
        </mxCell>
        <mxCell id="tsbJRF9lCujZH73IOLlX-102" value="menu admin" style="ellipse;whiteSpace=wrap;html=1;aspect=fixed;fillColor=#bac8d3;strokeColor=#23445d;" vertex="1" parent="1">
          <mxGeometry x="169" y="1583" width="80" height="80" as="geometry" />
        </mxCell>
        <mxCell id="bce6saLUcq6bkGVip8d0-1" style="edgeStyle=none;curved=1;rounded=0;orthogonalLoop=1;jettySize=auto;html=1;fontSize=12;startSize=8;endSize=8;" edge="1" parent="1" source="ca4IYZsGZd4kzJZ8MlDg-1">
          <mxGeometry relative="1" as="geometry">
            <mxPoint x="384.7777777777778" y="1752.666666666667" as="targetPoint" />
          </mxGeometry>
        </mxCell>
        <mxCell id="ca4IYZsGZd4kzJZ8MlDg-1" value="Menu admin&lt;div&gt;1. tambah&amp;nbsp;&lt;/div&gt;&lt;div&gt;2.lihat&lt;/div&gt;&lt;div&gt;3. memperbarui&lt;/div&gt;&lt;div&gt;4.hapus&lt;/div&gt;&lt;div&gt;5.keluar&lt;/div&gt;" style="shape=parallelogram;perimeter=parallelogramPerimeter;whiteSpace=wrap;html=1;fixedSize=1;" vertex="1" parent="1">
          <mxGeometry x="112" y="1712" width="194" height="86" as="geometry" />
        </mxCell>
        <mxCell id="bce6saLUcq6bkGVip8d0-50" style="edgeStyle=none;curved=1;rounded=0;orthogonalLoop=1;jettySize=auto;html=1;fontSize=12;startSize=8;endSize=8;" edge="1" parent="1" source="ca4IYZsGZd4kzJZ8MlDg-2" target="ca4IYZsGZd4kzJZ8MlDg-1">
          <mxGeometry relative="1" as="geometry" />
        </mxCell>
        <mxCell id="ca4IYZsGZd4kzJZ8MlDg-2" value="menu admin" style="ellipse;whiteSpace=wrap;html=1;aspect=fixed;fillColor=#bac8d3;strokeColor=#23445d;" vertex="1" parent="1">
          <mxGeometry x="-25" y="1715" width="80" height="80" as="geometry" />
        </mxCell>
        <mxCell id="SD83lYuw_5B_rw01Z9io-8" style="edgeStyle=none;curved=1;rounded=0;orthogonalLoop=1;jettySize=auto;html=1;fontSize=12;startSize=8;endSize=8;" edge="1" parent="1" source="ca4IYZsGZd4kzJZ8MlDg-10" target="bce6saLUcq6bkGVip8d0-25">
          <mxGeometry relative="1" as="geometry" />
        </mxCell>
        <mxCell id="4O4_IYTXsJNH0Z4pezqd-9" value="" style="edgeStyle=none;curved=1;rounded=0;orthogonalLoop=1;jettySize=auto;html=1;fontSize=12;startSize=8;endSize=8;" edge="1" parent="1" source="ca4IYZsGZd4kzJZ8MlDg-10" target="bce6saLUcq6bkGVip8d0-13">
          <mxGeometry relative="1" as="geometry" />
        </mxCell>
        <mxCell id="ca4IYZsGZd4kzJZ8MlDg-10" value="pil = 2(lihat)" style="rhombus;whiteSpace=wrap;html=1;" vertex="1" parent="1">
          <mxGeometry x="987.75" y="1712" width="80" height="80" as="geometry" />
        </mxCell>
        <mxCell id="bce6saLUcq6bkGVip8d0-30" style="edgeStyle=none;curved=1;rounded=0;orthogonalLoop=1;jettySize=auto;html=1;entryX=0.5;entryY=0;entryDx=0;entryDy=0;fontSize=12;startSize=8;endSize=8;" edge="1" parent="1" source="ca4IYZsGZd4kzJZ8MlDg-12" target="bce6saLUcq6bkGVip8d0-29">
          <mxGeometry relative="1" as="geometry" />
        </mxCell>
        <mxCell id="4O4_IYTXsJNH0Z4pezqd-12" value="" style="edgeStyle=none;curved=1;rounded=0;orthogonalLoop=1;jettySize=auto;html=1;fontSize=12;startSize=8;endSize=8;" edge="1" parent="1" source="ca4IYZsGZd4kzJZ8MlDg-12" target="4O4_IYTXsJNH0Z4pezqd-11">
          <mxGeometry relative="1" as="geometry" />
        </mxCell>
        <mxCell id="ca4IYZsGZd4kzJZ8MlDg-12" value="pil 4 =&amp;nbsp;&lt;div&gt;(hapus)&lt;/div&gt;" style="rhombus;whiteSpace=wrap;html=1;" vertex="1" parent="1">
          <mxGeometry x="1360.25" y="1712" width="80" height="80" as="geometry" />
        </mxCell>
        <mxCell id="ca4IYZsGZd4kzJZ8MlDg-22" style="edgeStyle=none;curved=1;rounded=0;orthogonalLoop=1;jettySize=auto;html=1;fontSize=12;startSize=8;endSize=8;" edge="1" parent="1" target="ca4IYZsGZd4kzJZ8MlDg-18">
          <mxGeometry relative="1" as="geometry">
            <mxPoint x="435" y="1782" as="sourcePoint" />
          </mxGeometry>
        </mxCell>
        <mxCell id="bce6saLUcq6bkGVip8d0-6" style="edgeStyle=none;curved=1;rounded=0;orthogonalLoop=1;jettySize=auto;html=1;fontSize=12;startSize=8;endSize=8;entryX=0;entryY=0.5;entryDx=0;entryDy=0;" edge="1" parent="1" target="ca4IYZsGZd4kzJZ8MlDg-10">
          <mxGeometry relative="1" as="geometry">
            <mxPoint x="485" y="1752" as="sourcePoint" />
            <mxPoint x="977.75" y="1752" as="targetPoint" />
          </mxGeometry>
        </mxCell>
        <mxCell id="bce6saLUcq6bkGVip8d0-58" style="edgeStyle=none;curved=1;rounded=0;orthogonalLoop=1;jettySize=auto;html=1;fontSize=12;startSize=8;endSize=8;" edge="1" parent="1" source="ca4IYZsGZd4kzJZ8MlDg-18" target="bce6saLUcq6bkGVip8d0-55">
          <mxGeometry relative="1" as="geometry" />
        </mxCell>
        <mxCell id="ca4IYZsGZd4kzJZ8MlDg-18" value="pil = 1 (tambah)" style="rhombus;whiteSpace=wrap;html=1;" vertex="1" parent="1">
          <mxGeometry x="395" y="1833" width="80" height="80" as="geometry" />
        </mxCell>
        <mxCell id="bce6saLUcq6bkGVip8d0-14" style="edgeStyle=none;curved=1;rounded=0;orthogonalLoop=1;jettySize=auto;html=1;fontSize=12;startSize=8;endSize=8;" edge="1" parent="1" target="bce6saLUcq6bkGVip8d0-13">
          <mxGeometry relative="1" as="geometry">
            <mxPoint x="1213.75" y="1782" as="sourcePoint" />
          </mxGeometry>
        </mxCell>
        <mxCell id="bce6saLUcq6bkGVip8d0-38" style="edgeStyle=none;curved=1;rounded=0;orthogonalLoop=1;jettySize=auto;html=1;entryX=0.5;entryY=0;entryDx=0;entryDy=0;fontSize=12;startSize=8;endSize=8;" edge="1" parent="1" source="bce6saLUcq6bkGVip8d0-13" target="bce6saLUcq6bkGVip8d0-37">
          <mxGeometry relative="1" as="geometry" />
        </mxCell>
        <mxCell id="4O4_IYTXsJNH0Z4pezqd-10" value="" style="edgeStyle=none;curved=1;rounded=0;orthogonalLoop=1;jettySize=auto;html=1;fontSize=12;startSize=8;endSize=8;" edge="1" parent="1" source="bce6saLUcq6bkGVip8d0-13" target="ca4IYZsGZd4kzJZ8MlDg-12">
          <mxGeometry relative="1" as="geometry" />
        </mxCell>
        <mxCell id="bce6saLUcq6bkGVip8d0-13" value="pil 3 = (update)" style="rhombus;whiteSpace=wrap;html=1;" vertex="1" parent="1">
          <mxGeometry x="1173.74" y="1712" width="80" height="80" as="geometry" />
        </mxCell>
        <mxCell id="bce6saLUcq6bkGVip8d0-28" style="edgeStyle=none;curved=1;rounded=0;orthogonalLoop=1;jettySize=auto;html=1;fontSize=12;startSize=8;endSize=8;" edge="1" parent="1" target="bce6saLUcq6bkGVip8d0-27">
          <mxGeometry relative="1" as="geometry">
            <mxPoint x="1027.75" y="2022" as="sourcePoint" />
          </mxGeometry>
        </mxCell>
        <mxCell id="bce6saLUcq6bkGVip8d0-25" value="output&quot; menampilkan game yang tersedia" style="shape=parallelogram;perimeter=parallelogramPerimeter;whiteSpace=wrap;html=1;fixedSize=1;" vertex="1" parent="1">
          <mxGeometry x="958" y="1964" width="139.5" height="60" as="geometry" />
        </mxCell>
        <mxCell id="bce6saLUcq6bkGVip8d0-27" value="menu admin" style="ellipse;whiteSpace=wrap;html=1;aspect=fixed;fillColor=#bac8d3;strokeColor=#23445d;" vertex="1" parent="1">
          <mxGeometry x="987.75" y="2052" width="80" height="80" as="geometry" />
        </mxCell>
        <mxCell id="bce6saLUcq6bkGVip8d0-32" style="edgeStyle=none;curved=1;rounded=0;orthogonalLoop=1;jettySize=auto;html=1;fontSize=12;startSize=8;endSize=8;" edge="1" parent="1" source="bce6saLUcq6bkGVip8d0-29" target="bce6saLUcq6bkGVip8d0-31">
          <mxGeometry relative="1" as="geometry" />
        </mxCell>
        <mxCell id="bce6saLUcq6bkGVip8d0-29" value="input&quot; masukkan game yang ingin dihapus" style="shape=parallelogram;perimeter=parallelogramPerimeter;whiteSpace=wrap;html=1;fixedSize=1;" vertex="1" parent="1">
          <mxGeometry x="1323.88" y="1959" width="152.75" height="60" as="geometry" />
        </mxCell>
        <mxCell id="bce6saLUcq6bkGVip8d0-34" style="edgeStyle=none;curved=1;rounded=0;orthogonalLoop=1;jettySize=auto;html=1;fontSize=12;startSize=8;endSize=8;" edge="1" parent="1" source="bce6saLUcq6bkGVip8d0-31" target="bce6saLUcq6bkGVip8d0-33">
          <mxGeometry relative="1" as="geometry" />
        </mxCell>
        <mxCell id="bce6saLUcq6bkGVip8d0-31" value="game dihapus dari database" style="shape=cylinder3;whiteSpace=wrap;html=1;boundedLbl=1;backgroundOutline=1;size=15;" vertex="1" parent="1">
          <mxGeometry x="1354.25" y="2062" width="97" height="106" as="geometry" />
        </mxCell>
        <mxCell id="mAUp8W1q8Bj-jL7dSHEb-1" value="" style="edgeStyle=none;curved=0;rounded=0;orthogonalLoop=1;jettySize=auto;html=1;entryX=1;entryY=0.5;entryDx=0;entryDy=0;fontSize=12;startSize=8;endSize=8;strokeColor=none;" edge="1" parent="1" source="ca4IYZsGZd4kzJZ8MlDg-18">
          <mxGeometry relative="1" as="geometry">
            <Array as="points" />
            <mxPoint x="435" y="1913" as="sourcePoint" />
            <mxPoint x="485" y="1993" as="targetPoint" />
          </mxGeometry>
        </mxCell>
        <mxCell id="bce6saLUcq6bkGVip8d0-36" style="edgeStyle=none;curved=1;rounded=0;orthogonalLoop=1;jettySize=auto;html=1;fontSize=12;startSize=8;endSize=8;" edge="1" parent="1" source="bce6saLUcq6bkGVip8d0-33">
          <mxGeometry relative="1" as="geometry">
            <mxPoint x="1402.7399999999998" y="2309" as="targetPoint" />
          </mxGeometry>
        </mxCell>
        <mxCell id="bce6saLUcq6bkGVip8d0-33" value="ouput&quot; menampilkan game yang telah dihapus" style="shape=parallelogram;perimeter=parallelogramPerimeter;whiteSpace=wrap;html=1;fixedSize=1;" vertex="1" parent="1">
          <mxGeometry x="1319.06" y="2208" width="167.37" height="60" as="geometry" />
        </mxCell>
        <mxCell id="bce6saLUcq6bkGVip8d0-35" value="menu admin" style="ellipse;whiteSpace=wrap;html=1;aspect=fixed;fillColor=#bac8d3;strokeColor=#23445d;" vertex="1" parent="1">
          <mxGeometry x="1362.75" y="2309" width="80" height="80" as="geometry" />
        </mxCell>
        <mxCell id="bce6saLUcq6bkGVip8d0-40" style="edgeStyle=none;curved=1;rounded=0;orthogonalLoop=1;jettySize=auto;html=1;entryX=0.5;entryY=0;entryDx=0;entryDy=0;fontSize=12;startSize=8;endSize=8;" edge="1" parent="1" source="bce6saLUcq6bkGVip8d0-37" target="bce6saLUcq6bkGVip8d0-39">
          <mxGeometry relative="1" as="geometry" />
        </mxCell>
        <mxCell id="bce6saLUcq6bkGVip8d0-37" value="output&quot; menampilkan game yang tersedia" style="shape=parallelogram;perimeter=parallelogramPerimeter;whiteSpace=wrap;html=1;fixedSize=1;" vertex="1" parent="1">
          <mxGeometry x="1144" y="1964" width="139.5" height="60" as="geometry" />
        </mxCell>
        <mxCell id="bce6saLUcq6bkGVip8d0-44" style="edgeStyle=none;curved=1;rounded=0;orthogonalLoop=1;jettySize=auto;html=1;fontSize=12;startSize=8;endSize=8;" edge="1" parent="1" source="bce6saLUcq6bkGVip8d0-39">
          <mxGeometry relative="1" as="geometry">
            <mxPoint x="1213.75" y="2162" as="targetPoint" />
          </mxGeometry>
        </mxCell>
        <mxCell id="mAUp8W1q8Bj-jL7dSHEb-4" value="" style="edgeStyle=none;curved=1;rounded=0;orthogonalLoop=1;jettySize=auto;html=1;fontSize=12;startSize=8;endSize=8;" edge="1" parent="1" source="bce6saLUcq6bkGVip8d0-39">
          <mxGeometry relative="1" as="geometry" />
        </mxCell>
        <mxCell id="bce6saLUcq6bkGVip8d0-39" value="input&quot; masukkan no game yangmau diupdate dan input nama game" style="shape=parallelogram;perimeter=parallelogramPerimeter;whiteSpace=wrap;html=1;fixedSize=1;" vertex="1" parent="1">
          <mxGeometry x="1125.12" y="2062" width="177.25" height="60" as="geometry" />
        </mxCell>
        <mxCell id="bce6saLUcq6bkGVip8d0-62" style="edgeStyle=none;curved=1;rounded=0;orthogonalLoop=1;jettySize=auto;html=1;fontSize=12;startSize=8;endSize=8;" edge="1" parent="1" source="bce6saLUcq6bkGVip8d0-46">
          <mxGeometry relative="1" as="geometry">
            <mxPoint x="1213.7399999999998" y="2309" as="targetPoint" />
          </mxGeometry>
        </mxCell>
        <mxCell id="bce6saLUcq6bkGVip8d0-46" value="game diupdate dari database" style="shape=cylinder3;whiteSpace=wrap;html=1;boundedLbl=1;backgroundOutline=1;size=15;" vertex="1" parent="1">
          <mxGeometry x="1165.25" y="2162" width="97" height="106" as="geometry" />
        </mxCell>
        <mxCell id="bce6saLUcq6bkGVip8d0-49" value="" style="edgeStyle=none;curved=0;rounded=0;orthogonalLoop=1;jettySize=auto;html=1;entryX=1;entryY=0.5;entryDx=0;entryDy=0;fontSize=12;startSize=8;endSize=8;strokeColor=none;" edge="1" parent="1">
          <mxGeometry relative="1" as="geometry">
            <Array as="points" />
            <mxPoint x="435" y="1993" as="sourcePoint" />
            <mxPoint x="477" y="1980.9999999999995" as="targetPoint" />
          </mxGeometry>
        </mxCell>
        <mxCell id="bce6saLUcq6bkGVip8d0-56" value="" style="edgeStyle=none;curved=0;rounded=0;orthogonalLoop=1;jettySize=auto;html=1;entryX=1;entryY=0.5;entryDx=0;entryDy=0;fontSize=12;startSize=8;endSize=8;strokeColor=none;" edge="1" parent="1" target="bce6saLUcq6bkGVip8d0-55">
          <mxGeometry relative="1" as="geometry">
            <Array as="points" />
            <mxPoint x="427" y="1980.9999999999995" as="sourcePoint" />
            <mxPoint x="605" y="2317" as="targetPoint" />
          </mxGeometry>
        </mxCell>
        <mxCell id="SD83lYuw_5B_rw01Z9io-18" value="" style="edgeStyle=none;curved=1;rounded=0;orthogonalLoop=1;jettySize=auto;html=1;fontSize=12;startSize=8;endSize=8;" edge="1" parent="1" source="bce6saLUcq6bkGVip8d0-55" target="SD83lYuw_5B_rw01Z9io-17">
          <mxGeometry relative="1" as="geometry" />
        </mxCell>
        <mxCell id="bce6saLUcq6bkGVip8d0-55" value="output&quot; pilih penambahan yang ingin dilakukan" style="shape=parallelogram;perimeter=parallelogramPerimeter;whiteSpace=wrap;html=1;fixedSize=1;" vertex="1" parent="1">
          <mxGeometry x="356.5" y="1947" width="157" height="52" as="geometry" />
        </mxCell>
        <mxCell id="bce6saLUcq6bkGVip8d0-61" value="menu admin" style="ellipse;whiteSpace=wrap;html=1;aspect=fixed;fillColor=#bac8d3;strokeColor=#23445d;" vertex="1" parent="1">
          <mxGeometry x="1173.75" y="2309" width="80" height="80" as="geometry" />
        </mxCell>
        <mxCell id="bce6saLUcq6bkGVip8d0-69" style="edgeStyle=none;curved=1;rounded=0;orthogonalLoop=1;jettySize=auto;html=1;entryX=0.5;entryY=0;entryDx=0;entryDy=0;fontSize=12;startSize=8;endSize=8;" edge="1" parent="1" source="bce6saLUcq6bkGVip8d0-65">
          <mxGeometry relative="1" as="geometry">
            <mxPoint x="437" y="2366" as="targetPoint" />
          </mxGeometry>
        </mxCell>
        <mxCell id="SD83lYuw_5B_rw01Z9io-20" value="ya" style="edgeLabel;html=1;align=center;verticalAlign=middle;resizable=0;points=[];fontSize=12;" connectable="0" vertex="1" parent="bce6saLUcq6bkGVip8d0-69">
          <mxGeometry x="-0.3537" y="-1" relative="1" as="geometry">
            <mxPoint as="offset" />
          </mxGeometry>
        </mxCell>
        <mxCell id="SD83lYuw_5B_rw01Z9io-16" value="tidak" style="edgeStyle=none;curved=1;rounded=0;orthogonalLoop=1;jettySize=auto;html=1;fontSize=12;startSize=8;endSize=8;" edge="1" parent="1" source="bce6saLUcq6bkGVip8d0-65" target="SD83lYuw_5B_rw01Z9io-13">
          <mxGeometry relative="1" as="geometry" />
        </mxCell>
        <mxCell id="bce6saLUcq6bkGVip8d0-65" value="opsi 1. tambah pilihan game" style="rhombus;whiteSpace=wrap;html=1;" vertex="1" parent="1">
          <mxGeometry x="388.5" y="2243" width="97" height="81" as="geometry" />
        </mxCell>
        <mxCell id="SD83lYuw_5B_rw01Z9io-23" style="edgeStyle=none;curved=1;rounded=0;orthogonalLoop=1;jettySize=auto;html=1;fontSize=12;startSize=8;endSize=8;" edge="1" parent="1" source="bce6saLUcq6bkGVip8d0-68" target="bce6saLUcq6bkGVip8d0-70">
          <mxGeometry relative="1" as="geometry" />
        </mxCell>
        <mxCell id="bce6saLUcq6bkGVip8d0-68" value="input&quot; no tabel, nama game dan paket topupnya" style="shape=parallelogram;perimeter=parallelogramPerimeter;whiteSpace=wrap;html=1;fixedSize=1;" vertex="1" parent="1">
          <mxGeometry x="364.75" y="2455" width="144.5" height="55" as="geometry" />
        </mxCell>
        <mxCell id="bce6saLUcq6bkGVip8d0-74" style="edgeStyle=none;curved=1;rounded=0;orthogonalLoop=1;jettySize=auto;html=1;fontSize=12;startSize=8;endSize=8;" edge="1" parent="1" source="bce6saLUcq6bkGVip8d0-70" target="bce6saLUcq6bkGVip8d0-73">
          <mxGeometry relative="1" as="geometry" />
        </mxCell>
        <mxCell id="bce6saLUcq6bkGVip8d0-70" value="game dan paket topup akan ditambah didatabase" style="shape=cylinder3;whiteSpace=wrap;html=1;boundedLbl=1;backgroundOutline=1;size=15;" vertex="1" parent="1">
          <mxGeometry x="388.5" y="2551" width="97" height="106" as="geometry" />
        </mxCell>
        <mxCell id="bce6saLUcq6bkGVip8d0-73" value="menu admin" style="ellipse;whiteSpace=wrap;html=1;aspect=fixed;fillColor=#bac8d3;strokeColor=#23445d;" vertex="1" parent="1">
          <mxGeometry x="394.87" y="2702" width="80" height="80" as="geometry" />
        </mxCell>
        <mxCell id="bce6saLUcq6bkGVip8d0-79" value="Keluar" style="ellipse;whiteSpace=wrap;html=1;aspect=fixed;fillColor=#e6d0de;gradientColor=#d5739d;strokeColor=#996185;" vertex="1" parent="1">
          <mxGeometry x="364.75" y="1109" width="80" height="80" as="geometry" />
        </mxCell>
        <mxCell id="bce6saLUcq6bkGVip8d0-85" value="" style="edgeStyle=none;curved=1;rounded=0;orthogonalLoop=1;jettySize=auto;html=1;fontSize=12;startSize=8;endSize=8;" edge="1" parent="1" target="bce6saLUcq6bkGVip8d0-83">
          <mxGeometry relative="1" as="geometry">
            <mxPoint x="66.5" y="3171" as="sourcePoint" />
          </mxGeometry>
        </mxCell>
        <mxCell id="bce6saLUcq6bkGVip8d0-81" value="menu user" style="ellipse;whiteSpace=wrap;html=1;aspect=fixed;fillColor=#fad7ac;strokeColor=#b46504;" vertex="1" parent="1">
          <mxGeometry x="26" y="3095" width="80" height="80" as="geometry" />
        </mxCell>
        <mxCell id="bce6saLUcq6bkGVip8d0-84" style="edgeStyle=none;curved=1;rounded=0;orthogonalLoop=1;jettySize=auto;html=1;fontSize=12;startSize=8;endSize=8;" edge="1" parent="1" source="bce6saLUcq6bkGVip8d0-82" target="bce6saLUcq6bkGVip8d0-83">
          <mxGeometry relative="1" as="geometry" />
        </mxCell>
        <mxCell id="bce6saLUcq6bkGVip8d0-82" value="menu user" style="ellipse;whiteSpace=wrap;html=1;aspect=fixed;fillColor=#fad7ac;strokeColor=#b46504;" vertex="1" parent="1">
          <mxGeometry x="-175" y="3229" width="80" height="80" as="geometry" />
        </mxCell>
        <mxCell id="4O4_IYTXsJNH0Z4pezqd-19" value="" style="edgeStyle=none;curved=1;rounded=0;orthogonalLoop=1;jettySize=auto;html=1;fontSize=12;startSize=8;endSize=8;" edge="1" parent="1" source="4O4_IYTXsJNH0Z4pezqd-23" target="bce6saLUcq6bkGVip8d0-92">
          <mxGeometry relative="1" as="geometry" />
        </mxCell>
        <mxCell id="bce6saLUcq6bkGVip8d0-83" value="1. cek saldo&lt;div&gt;2. tambah saldo&lt;/div&gt;&lt;div&gt;3. transaksi topup&lt;/div&gt;&lt;div&gt;4. cari game&lt;/div&gt;&lt;div&gt;5. sorting harga&lt;/div&gt;&lt;div&gt;6. keluar&lt;/div&gt;" style="shape=parallelogram;perimeter=parallelogramPerimeter;whiteSpace=wrap;html=1;fixedSize=1;" vertex="1" parent="1">
          <mxGeometry x="-29" y="3226" width="194" height="86" as="geometry" />
        </mxCell>
        <mxCell id="zIbpnKK2E8qISmA6mq7B-2" value="" style="edgeStyle=none;curved=1;rounded=0;orthogonalLoop=1;jettySize=auto;html=1;fontSize=12;startSize=8;endSize=8;" edge="1" parent="1" source="bce6saLUcq6bkGVip8d0-87">
          <mxGeometry relative="1" as="geometry">
            <mxPoint x="966.1376056338027" y="3381.5" as="targetPoint" />
          </mxGeometry>
        </mxCell>
        <mxCell id="4O4_IYTXsJNH0Z4pezqd-21" value="" style="edgeStyle=none;curved=1;rounded=0;orthogonalLoop=1;jettySize=auto;html=1;fontSize=12;startSize=8;endSize=8;" edge="1" parent="1" source="bce6saLUcq6bkGVip8d0-87" target="bce6saLUcq6bkGVip8d0-104">
          <mxGeometry relative="1" as="geometry" />
        </mxCell>
        <mxCell id="bce6saLUcq6bkGVip8d0-87" value="pil 2= tambah saldo" style="rhombus;whiteSpace=wrap;html=1;" vertex="1" parent="1">
          <mxGeometry x="919.62" y="3226" width="88.5" height="87" as="geometry" />
        </mxCell>
        <mxCell id="zIbpnKK2E8qISmA6mq7B-6" value="" style="edgeStyle=none;curved=1;rounded=0;orthogonalLoop=1;jettySize=auto;html=1;fontSize=12;startSize=8;endSize=8;" edge="1" parent="1" source="LX6_E9sRAiVw1Hghfjbd-1">
          <mxGeometry relative="1" as="geometry">
            <mxPoint x="632.123695652174" y="3500.5" as="targetPoint" />
          </mxGeometry>
        </mxCell>
        <mxCell id="4O4_IYTXsJNH0Z4pezqd-20" value="" style="edgeStyle=none;curved=1;rounded=0;orthogonalLoop=1;jettySize=auto;html=1;fontSize=12;startSize=8;endSize=8;" edge="1" parent="1" source="bce6saLUcq6bkGVip8d0-92" target="bce6saLUcq6bkGVip8d0-87">
          <mxGeometry relative="1" as="geometry" />
        </mxCell>
        <mxCell id="bce6saLUcq6bkGVip8d0-92" value="pil 1 = cek saldo" style="rhombus;whiteSpace=wrap;html=1;" vertex="1" parent="1">
          <mxGeometry x="592.12" y="3229.5" width="80" height="80" as="geometry" />
        </mxCell>
        <mxCell id="bce6saLUcq6bkGVip8d0-109" style="edgeStyle=none;curved=1;rounded=0;orthogonalLoop=1;jettySize=auto;html=1;fontSize=12;startSize=8;endSize=8;" edge="1" parent="1" source="bce6saLUcq6bkGVip8d0-104">
          <mxGeometry relative="1" as="geometry">
            <mxPoint x="1183.3739436619721" y="3381.5" as="targetPoint" />
          </mxGeometry>
        </mxCell>
        <mxCell id="4O4_IYTXsJNH0Z4pezqd-29" style="edgeStyle=none;curved=1;rounded=0;orthogonalLoop=1;jettySize=auto;html=1;entryX=0;entryY=0.5;entryDx=0;entryDy=0;fontSize=12;startSize=8;endSize=8;" edge="1" parent="1" source="bce6saLUcq6bkGVip8d0-104" target="4O4_IYTXsJNH0Z4pezqd-22">
          <mxGeometry relative="1" as="geometry" />
        </mxCell>
        <mxCell id="bce6saLUcq6bkGVip8d0-104" value="pil 3 = topup" style="rhombus;whiteSpace=wrap;html=1;" vertex="1" parent="1">
          <mxGeometry x="1143.37" y="3229.5" width="80" height="80" as="geometry" />
        </mxCell>
        <mxCell id="zIbpnKK2E8qISmA6mq7B-12" value="" style="edgeStyle=none;curved=1;rounded=0;orthogonalLoop=1;jettySize=auto;html=1;fontSize=12;startSize=8;endSize=8;" edge="1" parent="1" source="zIbpnKK2E8qISmA6mq7B-18">
          <mxGeometry relative="1" as="geometry">
            <mxPoint x="964.7515853658533" y="3617.5" as="targetPoint" />
          </mxGeometry>
        </mxCell>
        <mxCell id="zIbpnKK2E8qISmA6mq7B-1" value="input&quot; masukkan saldo yang&lt;div&gt;Ingin anda tambah&lt;/div&gt;" style="shape=parallelogram;perimeter=parallelogramPerimeter;whiteSpace=wrap;html=1;fixedSize=1;" vertex="1" parent="1">
          <mxGeometry x="878.88" y="3381.5" width="177.25" height="60" as="geometry" />
        </mxCell>
        <mxCell id="zIbpnKK2E8qISmA6mq7B-15" value="" style="edgeStyle=none;curved=1;rounded=0;orthogonalLoop=1;jettySize=auto;html=1;fontSize=12;startSize=8;endSize=8;" edge="1" parent="1">
          <mxGeometry relative="1" as="geometry">
            <mxPoint x="632.12" y="3597.5" as="targetPoint" />
            <mxPoint x="632.1227611940295" y="3560.5" as="sourcePoint" />
          </mxGeometry>
        </mxCell>
        <mxCell id="zIbpnKK2E8qISmA6mq7B-5" value="Output&quot; saldo yang dimiliki user" style="shape=parallelogram;perimeter=parallelogramPerimeter;whiteSpace=wrap;html=1;fixedSize=1;" vertex="1" parent="1">
          <mxGeometry x="551.5" y="3503" width="177.25" height="60" as="geometry" />
        </mxCell>
        <mxCell id="LX6_E9sRAiVw1Hghfjbd-6" value="" style="edgeStyle=none;curved=1;rounded=0;orthogonalLoop=1;jettySize=auto;html=1;fontSize=12;startSize=8;endSize=8;" edge="1" parent="1" target="LX6_E9sRAiVw1Hghfjbd-5">
          <mxGeometry relative="1" as="geometry">
            <mxPoint x="963.8624137931033" y="3677.5" as="sourcePoint" />
          </mxGeometry>
        </mxCell>
        <mxCell id="zIbpnKK2E8qISmA6mq7B-11" value="output&quot; saldo anda saat ini" style="shape=parallelogram;perimeter=parallelogramPerimeter;whiteSpace=wrap;html=1;fixedSize=1;" vertex="1" parent="1">
          <mxGeometry x="882" y="3617.5" width="177.25" height="60" as="geometry" />
        </mxCell>
        <mxCell id="zIbpnKK2E8qISmA6mq7B-19" value="" style="edgeStyle=none;curved=1;rounded=0;orthogonalLoop=1;jettySize=auto;html=1;fontSize=12;startSize=8;endSize=8;" edge="1" parent="1" target="zIbpnKK2E8qISmA6mq7B-18">
          <mxGeometry relative="1" as="geometry">
            <mxPoint x="966.945442477876" y="3441.5" as="sourcePoint" />
            <mxPoint x="960.37" y="3596.5" as="targetPoint" />
          </mxGeometry>
        </mxCell>
        <mxCell id="zIbpnKK2E8qISmA6mq7B-18" value="data saldo diupdate didatabase" style="shape=cylinder3;whiteSpace=wrap;html=1;boundedLbl=1;backgroundOutline=1;size=15;" vertex="1" parent="1">
          <mxGeometry x="919" y="3471.5" width="97" height="106" as="geometry" />
        </mxCell>
        <mxCell id="LX6_E9sRAiVw1Hghfjbd-3" value="" style="edgeStyle=none;curved=1;rounded=0;orthogonalLoop=1;jettySize=auto;html=1;fontSize=12;startSize=8;endSize=8;" edge="1" parent="1" source="bce6saLUcq6bkGVip8d0-92" target="LX6_E9sRAiVw1Hghfjbd-1">
          <mxGeometry relative="1" as="geometry">
            <mxPoint x="632.12" y="3309.5" as="sourcePoint" />
            <mxPoint x="630.12" y="3458.5" as="targetPoint" />
          </mxGeometry>
        </mxCell>
        <mxCell id="LX6_E9sRAiVw1Hghfjbd-1" value="Mengambil data saldo dari database" style="shape=cylinder3;whiteSpace=wrap;html=1;boundedLbl=1;backgroundOutline=1;size=15;" vertex="1" parent="1">
          <mxGeometry x="583.62" y="3362.5" width="97" height="106" as="geometry" />
        </mxCell>
        <mxCell id="LX6_E9sRAiVw1Hghfjbd-4" value="menu user" style="ellipse;whiteSpace=wrap;html=1;aspect=fixed;fillColor=#fad7ac;strokeColor=#b46504;" vertex="1" parent="1">
          <mxGeometry x="592.13" y="3597.5" width="80" height="80" as="geometry" />
        </mxCell>
        <mxCell id="LX6_E9sRAiVw1Hghfjbd-5" value="menu user" style="ellipse;whiteSpace=wrap;html=1;aspect=fixed;fillColor=#fad7ac;strokeColor=#b46504;" vertex="1" parent="1">
          <mxGeometry x="923.86" y="3705.5" width="80" height="80" as="geometry" />
        </mxCell>
        <mxCell id="LX6_E9sRAiVw1Hghfjbd-23" value="" style="edgeStyle=none;curved=1;rounded=0;orthogonalLoop=1;jettySize=auto;html=1;fontSize=12;startSize=8;endSize=8;" edge="1" parent="1" source="LX6_E9sRAiVw1Hghfjbd-21" target="LX6_E9sRAiVw1Hghfjbd-22">
          <mxGeometry relative="1" as="geometry" />
        </mxCell>
        <mxCell id="LX6_E9sRAiVw1Hghfjbd-21" value="menampilkan pilihan game dari database" style="shape=cylinder3;whiteSpace=wrap;html=1;boundedLbl=1;backgroundOutline=1;size=15;" vertex="1" parent="1">
          <mxGeometry x="1131.37" y="3381.5" width="97" height="104" as="geometry" />
        </mxCell>
        <mxCell id="LX6_E9sRAiVw1Hghfjbd-25" value="" style="edgeStyle=none;curved=1;rounded=0;orthogonalLoop=1;jettySize=auto;html=1;fontSize=12;startSize=8;endSize=8;" edge="1" parent="1" source="LX6_E9sRAiVw1Hghfjbd-22" target="LX6_E9sRAiVw1Hghfjbd-24">
          <mxGeometry relative="1" as="geometry" />
        </mxCell>
        <mxCell id="LX6_E9sRAiVw1Hghfjbd-22" value="input&quot; nomor game" style="shape=parallelogram;perimeter=parallelogramPerimeter;whiteSpace=wrap;html=1;fixedSize=1;" vertex="1" parent="1">
          <mxGeometry x="1123.37" y="3528.5" width="120" height="60" as="geometry" />
        </mxCell>
        <mxCell id="LX6_E9sRAiVw1Hghfjbd-27" value="" style="edgeStyle=none;curved=1;rounded=0;orthogonalLoop=1;jettySize=auto;html=1;fontSize=12;startSize=8;endSize=8;" edge="1" parent="1" source="LX6_E9sRAiVw1Hghfjbd-24" target="LX6_E9sRAiVw1Hghfjbd-26">
          <mxGeometry relative="1" as="geometry" />
        </mxCell>
        <mxCell id="LX6_E9sRAiVw1Hghfjbd-24" value="Menampilkan paket topup game dari database" style="shape=cylinder3;whiteSpace=wrap;html=1;boundedLbl=1;backgroundOutline=1;size=15;" vertex="1" parent="1">
          <mxGeometry x="1134.87" y="3628.5" width="97" height="104" as="geometry" />
        </mxCell>
        <mxCell id="LX6_E9sRAiVw1Hghfjbd-29" value="" style="edgeStyle=none;curved=1;rounded=0;orthogonalLoop=1;jettySize=auto;html=1;fontSize=12;startSize=8;endSize=8;" edge="1" parent="1" source="LX6_E9sRAiVw1Hghfjbd-26" target="LX6_E9sRAiVw1Hghfjbd-28">
          <mxGeometry relative="1" as="geometry" />
        </mxCell>
        <mxCell id="LX6_E9sRAiVw1Hghfjbd-26" value="input&quot; no paket yg ingin dibeli" style="shape=parallelogram;perimeter=parallelogramPerimeter;whiteSpace=wrap;html=1;fixedSize=1;" vertex="1" parent="1">
          <mxGeometry x="1106.75" y="3772.5" width="153.25" height="67" as="geometry" />
        </mxCell>
        <mxCell id="LX6_E9sRAiVw1Hghfjbd-31" value="" style="edgeStyle=none;curved=1;rounded=0;orthogonalLoop=1;jettySize=auto;html=1;fontSize=12;startSize=8;endSize=8;" edge="1" parent="1" source="LX6_E9sRAiVw1Hghfjbd-28" target="LX6_E9sRAiVw1Hghfjbd-30">
          <mxGeometry relative="1" as="geometry" />
        </mxCell>
        <mxCell id="LX6_E9sRAiVw1Hghfjbd-34" value="tidak" style="edgeLabel;html=1;align=center;verticalAlign=middle;resizable=0;points=[];fontSize=12;" connectable="0" vertex="1" parent="LX6_E9sRAiVw1Hghfjbd-31">
          <mxGeometry x="-0.4251" y="-2" relative="1" as="geometry">
            <mxPoint as="offset" />
          </mxGeometry>
        </mxCell>
        <mxCell id="LX6_E9sRAiVw1Hghfjbd-36" value="" style="edgeStyle=none;curved=1;rounded=0;orthogonalLoop=1;jettySize=auto;html=1;fontSize=12;startSize=8;endSize=8;" edge="1" parent="1" source="LX6_E9sRAiVw1Hghfjbd-28" target="LX6_E9sRAiVw1Hghfjbd-35">
          <mxGeometry relative="1" as="geometry" />
        </mxCell>
        <mxCell id="LX6_E9sRAiVw1Hghfjbd-28" value="Saldo cukup?" style="rhombus;whiteSpace=wrap;html=1;" vertex="1" parent="1">
          <mxGeometry x="1143.37" y="3892.5" width="80" height="80" as="geometry" />
        </mxCell>
        <mxCell id="LX6_E9sRAiVw1Hghfjbd-42" value="" style="edgeStyle=none;curved=1;rounded=0;orthogonalLoop=1;jettySize=auto;html=1;fontSize=12;startSize=8;endSize=8;" edge="1" parent="1" source="LX6_E9sRAiVw1Hghfjbd-30" target="LX6_E9sRAiVw1Hghfjbd-41">
          <mxGeometry relative="1" as="geometry" />
        </mxCell>
        <mxCell id="LX6_E9sRAiVw1Hghfjbd-30" value="output&quot; Saldo anda tidak cukup" style="shape=parallelogram;perimeter=parallelogramPerimeter;whiteSpace=wrap;html=1;fixedSize=1;" vertex="1" parent="1">
          <mxGeometry x="1299.37" y="3902.5" width="137" height="60" as="geometry" />
        </mxCell>
        <mxCell id="LX6_E9sRAiVw1Hghfjbd-38" value="" style="edgeStyle=none;curved=1;rounded=0;orthogonalLoop=1;jettySize=auto;html=1;fontSize=12;startSize=8;endSize=8;" edge="1" parent="1" source="LX6_E9sRAiVw1Hghfjbd-35" target="LX6_E9sRAiVw1Hghfjbd-37">
          <mxGeometry relative="1" as="geometry" />
        </mxCell>
        <mxCell id="LX6_E9sRAiVw1Hghfjbd-35" value="saldo user akan dikurangi di database" style="shape=cylinder3;whiteSpace=wrap;html=1;boundedLbl=1;backgroundOutline=1;size=15;" vertex="1" parent="1">
          <mxGeometry x="1147.62" y="4009.5" width="71.5" height="96" as="geometry" />
        </mxCell>
        <mxCell id="LX6_E9sRAiVw1Hghfjbd-40" value="" style="edgeStyle=none;curved=1;rounded=0;orthogonalLoop=1;jettySize=auto;html=1;fontSize=12;startSize=8;endSize=8;" edge="1" parent="1" source="LX6_E9sRAiVw1Hghfjbd-37" target="LX6_E9sRAiVw1Hghfjbd-39">
          <mxGeometry relative="1" as="geometry" />
        </mxCell>
        <mxCell id="LX6_E9sRAiVw1Hghfjbd-37" value="output&quot; Menampilkan invoice" style="shape=parallelogram;perimeter=parallelogramPerimeter;whiteSpace=wrap;html=1;fixedSize=1;" vertex="1" parent="1">
          <mxGeometry x="1114.87" y="4142.5" width="137" height="60" as="geometry" />
        </mxCell>
        <mxCell id="LX6_E9sRAiVw1Hghfjbd-39" value="menu user" style="ellipse;whiteSpace=wrap;html=1;aspect=fixed;fillColor=#fad7ac;strokeColor=#b46504;" vertex="1" parent="1">
          <mxGeometry x="1144.87" y="4246.5" width="80" height="80" as="geometry" />
        </mxCell>
        <mxCell id="LX6_E9sRAiVw1Hghfjbd-41" value="menu user" style="ellipse;whiteSpace=wrap;html=1;aspect=fixed;fillColor=#fad7ac;strokeColor=#b46504;" vertex="1" parent="1">
          <mxGeometry x="1495.37" y="3892.5" width="80" height="80" as="geometry" />
        </mxCell>
        <mxCell id="SD83lYuw_5B_rw01Z9io-25" value="" style="edgeStyle=none;curved=1;rounded=0;orthogonalLoop=1;jettySize=auto;html=1;fontSize=12;startSize=8;endSize=8;" edge="1" parent="1" source="SD83lYuw_5B_rw01Z9io-13" target="SD83lYuw_5B_rw01Z9io-24">
          <mxGeometry relative="1" as="geometry" />
        </mxCell>
        <mxCell id="JDDVavW--jjlFI6I-4Tp-3" value="" style="edgeStyle=none;curved=1;rounded=0;orthogonalLoop=1;jettySize=auto;html=1;fontSize=12;startSize=8;endSize=8;" edge="1" parent="1" source="SD83lYuw_5B_rw01Z9io-13">
          <mxGeometry relative="1" as="geometry">
            <mxPoint x="762" y="2283.5" as="targetPoint" />
          </mxGeometry>
        </mxCell>
        <mxCell id="SD83lYuw_5B_rw01Z9io-13" value="opsi 2. tambah pake topup" style="rhombus;whiteSpace=wrap;html=1;" vertex="1" parent="1">
          <mxGeometry x="606.87" y="2243" width="97" height="81" as="geometry" />
        </mxCell>
        <mxCell id="SD83lYuw_5B_rw01Z9io-22" style="edgeStyle=none;curved=1;rounded=0;orthogonalLoop=1;jettySize=auto;html=1;fontSize=12;startSize=8;endSize=8;" edge="1" parent="1" source="SD83lYuw_5B_rw01Z9io-14" target="bce6saLUcq6bkGVip8d0-68">
          <mxGeometry relative="1" as="geometry" />
        </mxCell>
        <mxCell id="SD83lYuw_5B_rw01Z9io-14" value="output&quot; menampilkan game yang tersedia" style="shape=parallelogram;perimeter=parallelogramPerimeter;whiteSpace=wrap;html=1;fixedSize=1;" vertex="1" parent="1">
          <mxGeometry x="367.25" y="2366" width="139.5" height="60" as="geometry" />
        </mxCell>
        <mxCell id="SD83lYuw_5B_rw01Z9io-19" value="" style="edgeStyle=none;curved=1;rounded=0;orthogonalLoop=1;jettySize=auto;html=1;fontSize=12;startSize=8;endSize=8;" edge="1" parent="1" source="SD83lYuw_5B_rw01Z9io-17" target="bce6saLUcq6bkGVip8d0-65">
          <mxGeometry relative="1" as="geometry" />
        </mxCell>
        <mxCell id="SD83lYuw_5B_rw01Z9io-17" value="pilih opsi" style="shape=parallelogram;perimeter=parallelogramPerimeter;whiteSpace=wrap;html=1;fixedSize=1;" vertex="1" parent="1">
          <mxGeometry x="356.5" y="2062" width="157" height="52" as="geometry" />
        </mxCell>
        <mxCell id="SD83lYuw_5B_rw01Z9io-27" value="" style="edgeStyle=none;curved=1;rounded=0;orthogonalLoop=1;jettySize=auto;html=1;fontSize=12;startSize=8;endSize=8;" edge="1" parent="1" source="SD83lYuw_5B_rw01Z9io-24" target="SD83lYuw_5B_rw01Z9io-26">
          <mxGeometry relative="1" as="geometry" />
        </mxCell>
        <mxCell id="SD83lYuw_5B_rw01Z9io-24" value="output&quot; menampilkan game yang tersedia" style="shape=parallelogram;perimeter=parallelogramPerimeter;whiteSpace=wrap;html=1;fixedSize=1;" vertex="1" parent="1">
          <mxGeometry x="585.62" y="2366" width="139.5" height="60" as="geometry" />
        </mxCell>
        <mxCell id="SD83lYuw_5B_rw01Z9io-31" style="edgeStyle=none;curved=1;rounded=0;orthogonalLoop=1;jettySize=auto;html=1;fontSize=12;startSize=8;endSize=8;" edge="1" parent="1" source="SD83lYuw_5B_rw01Z9io-26">
          <mxGeometry relative="1" as="geometry">
            <mxPoint x="655.1058870967742" y="2554" as="targetPoint" />
          </mxGeometry>
        </mxCell>
        <mxCell id="SD83lYuw_5B_rw01Z9io-26" value="input&quot; nomor game" style="shape=parallelogram;perimeter=parallelogramPerimeter;whiteSpace=wrap;html=1;fixedSize=1;" vertex="1" parent="1">
          <mxGeometry x="583.12" y="2461" width="144.5" height="55" as="geometry" />
        </mxCell>
        <mxCell id="SD83lYuw_5B_rw01Z9io-32" style="edgeStyle=none;curved=1;rounded=0;orthogonalLoop=1;jettySize=auto;html=1;fontSize=12;startSize=8;endSize=8;" edge="1" parent="1" target="SD83lYuw_5B_rw01Z9io-29">
          <mxGeometry relative="1" as="geometry">
            <mxPoint x="655.0951213592231" y="2609" as="sourcePoint" />
          </mxGeometry>
        </mxCell>
        <mxCell id="SD83lYuw_5B_rw01Z9io-28" value="output&quot; menampilkan paket topup game" style="shape=parallelogram;perimeter=parallelogramPerimeter;whiteSpace=wrap;html=1;fixedSize=1;" vertex="1" parent="1">
          <mxGeometry x="567.61" y="2553" width="174.75" height="55" as="geometry" />
        </mxCell>
        <mxCell id="SD83lYuw_5B_rw01Z9io-29" value="input&quot; no paket, nama paket dan harga paket" style="shape=parallelogram;perimeter=parallelogramPerimeter;whiteSpace=wrap;html=1;fixedSize=1;" vertex="1" parent="1">
          <mxGeometry x="583.12" y="2657" width="144.5" height="55" as="geometry" />
        </mxCell>
        <mxCell id="SD83lYuw_5B_rw01Z9io-36" style="edgeStyle=none;curved=1;rounded=0;orthogonalLoop=1;jettySize=auto;html=1;fontSize=12;startSize=8;endSize=8;" edge="1" parent="1" source="SD83lYuw_5B_rw01Z9io-33" target="SD83lYuw_5B_rw01Z9io-35">
          <mxGeometry relative="1" as="geometry" />
        </mxCell>
        <mxCell id="SD83lYuw_5B_rw01Z9io-33" value="paket topup tertambah di database" style="shape=cylinder3;whiteSpace=wrap;html=1;boundedLbl=1;backgroundOutline=1;size=15;" vertex="1" parent="1">
          <mxGeometry x="606.49" y="2765" width="97" height="106" as="geometry" />
        </mxCell>
        <mxCell id="SD83lYuw_5B_rw01Z9io-34" style="edgeStyle=none;curved=1;rounded=0;orthogonalLoop=1;jettySize=auto;html=1;entryX=0.5;entryY=0;entryDx=0;entryDy=0;entryPerimeter=0;fontSize=12;startSize=8;endSize=8;" edge="1" parent="1" source="SD83lYuw_5B_rw01Z9io-29" target="SD83lYuw_5B_rw01Z9io-33">
          <mxGeometry relative="1" as="geometry" />
        </mxCell>
        <mxCell id="SD83lYuw_5B_rw01Z9io-35" value="menu admin" style="ellipse;whiteSpace=wrap;html=1;aspect=fixed;fillColor=#bac8d3;strokeColor=#23445d;" vertex="1" parent="1">
          <mxGeometry x="615.37" y="2924" width="80" height="80" as="geometry" />
        </mxCell>
        <mxCell id="JDDVavW--jjlFI6I-4Tp-1" value="ya" style="text;html=1;align=center;verticalAlign=middle;resizable=0;points=[];autosize=1;strokeColor=none;fillColor=none;fontSize=16;" vertex="1" parent="1">
          <mxGeometry x="617.37" y="2313.5" width="35" height="31" as="geometry" />
        </mxCell>
        <mxCell id="JDDVavW--jjlFI6I-4Tp-5" style="edgeStyle=none;curved=0;rounded=0;orthogonalLoop=1;jettySize=auto;html=1;entryX=1;entryY=0.5;entryDx=0;entryDy=0;fontSize=12;startSize=8;endSize=8;" edge="1" parent="1" target="bce6saLUcq6bkGVip8d0-55">
          <mxGeometry relative="1" as="geometry">
            <Array as="points">
              <mxPoint x="910" y="2283" />
              <mxPoint x="913" y="1973" />
            </Array>
            <mxPoint x="862" y="2283.2448979591836" as="sourcePoint" />
          </mxGeometry>
        </mxCell>
        <mxCell id="JDDVavW--jjlFI6I-4Tp-4" value="&lt;font style=&quot;font-size: 12px;&quot;&gt;tidak&lt;/font&gt;" style="text;html=1;align=center;verticalAlign=middle;resizable=0;points=[];autosize=1;strokeColor=none;fillColor=none;fontSize=16;" vertex="1" parent="1">
          <mxGeometry x="703.87" y="2251" width="43" height="31" as="geometry" />
        </mxCell>
        <mxCell id="4O4_IYTXsJNH0Z4pezqd-1" value="output&quot; errorhandling&lt;div&gt;input tidak valid&lt;/div&gt;" style="shape=parallelogram;perimeter=parallelogramPerimeter;whiteSpace=wrap;html=1;fixedSize=1;" vertex="1" parent="1">
          <mxGeometry x="752.25" y="2253.5" width="139.75" height="60" as="geometry" />
        </mxCell>
        <mxCell id="4O4_IYTXsJNH0Z4pezqd-7" value="PILIH OPSI&amp;nbsp;" style="shape=parallelogram;perimeter=parallelogramPerimeter;whiteSpace=wrap;html=1;fixedSize=1;" vertex="1" parent="1">
          <mxGeometry x="375" y="1722" width="120" height="60" as="geometry" />
        </mxCell>
        <mxCell id="4O4_IYTXsJNH0Z4pezqd-14" value="" style="edgeStyle=none;curved=1;rounded=0;orthogonalLoop=1;jettySize=auto;html=1;fontSize=12;startSize=8;endSize=8;" edge="1" parent="1" source="4O4_IYTXsJNH0Z4pezqd-11" target="4O4_IYTXsJNH0Z4pezqd-13">
          <mxGeometry relative="1" as="geometry" />
        </mxCell>
        <mxCell id="4O4_IYTXsJNH0Z4pezqd-17" value="" style="edgeStyle=none;curved=1;rounded=0;orthogonalLoop=1;jettySize=auto;html=1;fontSize=12;startSize=8;endSize=8;" edge="1" parent="1" source="4O4_IYTXsJNH0Z4pezqd-11" target="4O4_IYTXsJNH0Z4pezqd-16">
          <mxGeometry relative="1" as="geometry" />
        </mxCell>
        <mxCell id="4O4_IYTXsJNH0Z4pezqd-11" value="pil 5 = keluar" style="rhombus;whiteSpace=wrap;html=1;" vertex="1" parent="1">
          <mxGeometry x="1514" y="1712" width="80" height="80" as="geometry" />
        </mxCell>
        <mxCell id="4O4_IYTXsJNH0Z4pezqd-13" value="Main menu" style="ellipse;whiteSpace=wrap;html=1;aspect=fixed;fillColor=#008a00;fontColor=#ffffff;strokeColor=#005700;" vertex="1" parent="1">
          <mxGeometry x="1514" y="1837" width="80" height="80" as="geometry" />
        </mxCell>
        <mxCell id="4O4_IYTXsJNH0Z4pezqd-15" value="&lt;font style=&quot;font-size: 12px;&quot;&gt;ya&lt;/font&gt;" style="text;html=1;align=center;verticalAlign=middle;resizable=0;points=[];autosize=1;strokeColor=none;fillColor=none;fontSize=16;" vertex="1" parent="1">
          <mxGeometry x="1516.5" y="1793.5" width="31" height="31" as="geometry" />
        </mxCell>
        <mxCell id="4O4_IYTXsJNH0Z4pezqd-16" value="menu admin" style="ellipse;whiteSpace=wrap;html=1;aspect=fixed;fillColor=#bac8d3;strokeColor=#23445d;" vertex="1" parent="1">
          <mxGeometry x="1712" y="1712" width="80" height="80" as="geometry" />
        </mxCell>
        <mxCell id="4O4_IYTXsJNH0Z4pezqd-18" value="&lt;font style=&quot;font-size: 12px;&quot;&gt;tidak&lt;/font&gt;" style="text;html=1;align=center;verticalAlign=middle;resizable=0;points=[];autosize=1;strokeColor=none;fillColor=none;fontSize=16;" vertex="1" parent="1">
          <mxGeometry x="1589.5" y="1720.5" width="43" height="31" as="geometry" />
        </mxCell>
        <mxCell id="4O4_IYTXsJNH0Z4pezqd-32" value="" style="edgeStyle=none;curved=1;rounded=0;orthogonalLoop=1;jettySize=auto;html=1;fontSize=12;startSize=8;endSize=8;" edge="1" parent="1" source="4O4_IYTXsJNH0Z4pezqd-22" target="4O4_IYTXsJNH0Z4pezqd-31">
          <mxGeometry relative="1" as="geometry" />
        </mxCell>
        <mxCell id="4O4_IYTXsJNH0Z4pezqd-87" style="edgeStyle=none;curved=1;rounded=0;orthogonalLoop=1;jettySize=auto;html=1;fontSize=12;startSize=8;endSize=8;" edge="1" parent="1" source="4O4_IYTXsJNH0Z4pezqd-22" target="4O4_IYTXsJNH0Z4pezqd-38">
          <mxGeometry relative="1" as="geometry" />
        </mxCell>
        <mxCell id="4O4_IYTXsJNH0Z4pezqd-22" value="pil 4 = cari game" style="rhombus;whiteSpace=wrap;html=1;" vertex="1" parent="1">
          <mxGeometry x="1786.37" y="3229.5" width="80" height="80" as="geometry" />
        </mxCell>
        <mxCell id="4O4_IYTXsJNH0Z4pezqd-24" value="" style="edgeStyle=none;curved=1;rounded=0;orthogonalLoop=1;jettySize=auto;html=1;fontSize=12;startSize=8;endSize=8;" edge="1" parent="1" source="bce6saLUcq6bkGVip8d0-83" target="4O4_IYTXsJNH0Z4pezqd-23">
          <mxGeometry relative="1" as="geometry">
            <mxPoint x="155" y="3269" as="sourcePoint" />
            <mxPoint x="592" y="3269" as="targetPoint" />
          </mxGeometry>
        </mxCell>
        <mxCell id="4O4_IYTXsJNH0Z4pezqd-23" value="pilih opsi" style="shape=parallelogram;perimeter=parallelogramPerimeter;whiteSpace=wrap;html=1;fixedSize=1;" vertex="1" parent="1">
          <mxGeometry x="319" y="3239.5" width="120" height="60" as="geometry" />
        </mxCell>
        <mxCell id="4O4_IYTXsJNH0Z4pezqd-34" value="" style="edgeStyle=none;curved=1;rounded=0;orthogonalLoop=1;jettySize=auto;html=1;fontSize=12;startSize=8;endSize=8;" edge="1" parent="1" source="4O4_IYTXsJNH0Z4pezqd-31" target="4O4_IYTXsJNH0Z4pezqd-33">
          <mxGeometry relative="1" as="geometry" />
        </mxCell>
        <mxCell id="4O4_IYTXsJNH0Z4pezqd-31" value="input&quot; nama game yang ingin dicari" style="shape=parallelogram;perimeter=parallelogramPerimeter;whiteSpace=wrap;html=1;fixedSize=1;" vertex="1" parent="1">
          <mxGeometry x="1766.37" y="3370.5" width="120" height="60" as="geometry" />
        </mxCell>
        <mxCell id="4O4_IYTXsJNH0Z4pezqd-36" value="" style="edgeStyle=none;curved=1;rounded=0;orthogonalLoop=1;jettySize=auto;html=1;fontSize=12;startSize=8;endSize=8;" edge="1" parent="1" source="4O4_IYTXsJNH0Z4pezqd-33" target="4O4_IYTXsJNH0Z4pezqd-35">
          <mxGeometry relative="1" as="geometry" />
        </mxCell>
        <mxCell id="4O4_IYTXsJNH0Z4pezqd-33" value="mengecek game" style="rounded=1;whiteSpace=wrap;html=1;" vertex="1" parent="1">
          <mxGeometry x="1765" y="3469.5" width="120" height="60" as="geometry" />
        </mxCell>
        <mxCell id="4O4_IYTXsJNH0Z4pezqd-40" value="" style="edgeStyle=none;curved=1;rounded=0;orthogonalLoop=1;jettySize=auto;html=1;fontSize=12;startSize=8;endSize=8;" edge="1" parent="1" source="4O4_IYTXsJNH0Z4pezqd-35" target="4O4_IYTXsJNH0Z4pezqd-39">
          <mxGeometry relative="1" as="geometry" />
        </mxCell>
        <mxCell id="4O4_IYTXsJNH0Z4pezqd-35" value="data json" style="shape=cylinder3;whiteSpace=wrap;html=1;boundedLbl=1;backgroundOutline=1;size=15;" vertex="1" parent="1">
          <mxGeometry x="1777.87" y="3584.5" width="97" height="104" as="geometry" />
        </mxCell>
        <mxCell id="4O4_IYTXsJNH0Z4pezqd-89" value="" style="edgeStyle=none;curved=1;rounded=0;orthogonalLoop=1;jettySize=auto;html=1;fontSize=12;startSize=8;endSize=8;" edge="1" parent="1" source="4O4_IYTXsJNH0Z4pezqd-38" target="4O4_IYTXsJNH0Z4pezqd-88">
          <mxGeometry relative="1" as="geometry" />
        </mxCell>
        <mxCell id="4O4_IYTXsJNH0Z4pezqd-38" value="pil 5 = sorting" style="rhombus;whiteSpace=wrap;html=1;" vertex="1" parent="1">
          <mxGeometry x="2339" y="3229" width="80" height="80" as="geometry" />
        </mxCell>
        <mxCell id="4O4_IYTXsJNH0Z4pezqd-42" value="" style="edgeStyle=none;curved=1;rounded=0;orthogonalLoop=1;jettySize=auto;html=1;fontSize=12;startSize=8;endSize=8;" edge="1" parent="1" source="4O4_IYTXsJNH0Z4pezqd-39" target="4O4_IYTXsJNH0Z4pezqd-41">
          <mxGeometry relative="1" as="geometry" />
        </mxCell>
        <mxCell id="4O4_IYTXsJNH0Z4pezqd-85" style="edgeStyle=none;curved=1;rounded=0;orthogonalLoop=1;jettySize=auto;html=1;fontSize=12;startSize=8;endSize=8;" edge="1" parent="1" source="4O4_IYTXsJNH0Z4pezqd-39" target="4O4_IYTXsJNH0Z4pezqd-84">
          <mxGeometry relative="1" as="geometry" />
        </mxCell>
        <mxCell id="4O4_IYTXsJNH0Z4pezqd-39" value="apakah game ada?" style="rhombus;whiteSpace=wrap;html=1;" vertex="1" parent="1">
          <mxGeometry x="1776.56" y="3737" width="99.63" height="88" as="geometry" />
        </mxCell>
        <mxCell id="4O4_IYTXsJNH0Z4pezqd-49" value="" style="edgeStyle=none;curved=1;rounded=0;orthogonalLoop=1;jettySize=auto;html=1;fontSize=12;startSize=8;endSize=8;" edge="1" parent="1" source="4O4_IYTXsJNH0Z4pezqd-41" target="4O4_IYTXsJNH0Z4pezqd-47">
          <mxGeometry relative="1" as="geometry" />
        </mxCell>
        <mxCell id="4O4_IYTXsJNH0Z4pezqd-41" value="ouput&quot; paket topup game" style="shape=parallelogram;perimeter=parallelogramPerimeter;whiteSpace=wrap;html=1;fixedSize=1;" vertex="1" parent="1">
          <mxGeometry x="1761.56" y="3874" width="129.63" height="68" as="geometry" />
        </mxCell>
        <mxCell id="4O4_IYTXsJNH0Z4pezqd-52" value="" style="edgeStyle=none;curved=1;rounded=0;orthogonalLoop=1;jettySize=auto;html=1;fontSize=12;startSize=8;endSize=8;" edge="1" parent="1" source="4O4_IYTXsJNH0Z4pezqd-47" target="4O4_IYTXsJNH0Z4pezqd-51">
          <mxGeometry relative="1" as="geometry" />
        </mxCell>
        <mxCell id="4O4_IYTXsJNH0Z4pezqd-47" value="1. topup game&lt;div&gt;2. kembali&lt;/div&gt;" style="shape=parallelogram;perimeter=parallelogramPerimeter;whiteSpace=wrap;html=1;fixedSize=1;" vertex="1" parent="1">
          <mxGeometry x="1766.37" y="3986" width="120" height="60" as="geometry" />
        </mxCell>
        <mxCell id="4O4_IYTXsJNH0Z4pezqd-54" value="" style="edgeStyle=none;curved=1;rounded=0;orthogonalLoop=1;jettySize=auto;html=1;fontSize=12;startSize=8;endSize=8;" edge="1" parent="1" source="4O4_IYTXsJNH0Z4pezqd-51" target="4O4_IYTXsJNH0Z4pezqd-53">
          <mxGeometry relative="1" as="geometry" />
        </mxCell>
        <mxCell id="4O4_IYTXsJNH0Z4pezqd-51" value="pilih opsi" style="shape=parallelogram;perimeter=parallelogramPerimeter;whiteSpace=wrap;html=1;fixedSize=1;" vertex="1" parent="1">
          <mxGeometry x="1766.3799999999999" y="4090" width="120" height="60" as="geometry" />
        </mxCell>
        <mxCell id="4O4_IYTXsJNH0Z4pezqd-56" value="" style="edgeStyle=none;curved=1;rounded=0;orthogonalLoop=1;jettySize=auto;html=1;fontSize=12;startSize=8;endSize=8;" edge="1" parent="1" source="4O4_IYTXsJNH0Z4pezqd-53" target="4O4_IYTXsJNH0Z4pezqd-55">
          <mxGeometry relative="1" as="geometry" />
        </mxCell>
        <mxCell id="4O4_IYTXsJNH0Z4pezqd-76" value="" style="edgeStyle=none;curved=1;rounded=0;orthogonalLoop=1;jettySize=auto;html=1;fontSize=12;startSize=8;endSize=8;" edge="1" parent="1" source="4O4_IYTXsJNH0Z4pezqd-53" target="4O4_IYTXsJNH0Z4pezqd-75">
          <mxGeometry relative="1" as="geometry" />
        </mxCell>
        <mxCell id="4O4_IYTXsJNH0Z4pezqd-53" value="pil 1. topup" style="rhombus;whiteSpace=wrap;html=1;" vertex="1" parent="1">
          <mxGeometry x="1785" y="4194" width="80" height="80" as="geometry" />
        </mxCell>
        <mxCell id="4O4_IYTXsJNH0Z4pezqd-60" value="" style="edgeStyle=none;curved=1;rounded=0;orthogonalLoop=1;jettySize=auto;html=1;fontSize=12;startSize=8;endSize=8;" edge="1" parent="1" source="4O4_IYTXsJNH0Z4pezqd-55" target="4O4_IYTXsJNH0Z4pezqd-58">
          <mxGeometry relative="1" as="geometry" />
        </mxCell>
        <mxCell id="4O4_IYTXsJNH0Z4pezqd-55" value="input &quot;no paket&quot;" style="shape=parallelogram;perimeter=parallelogramPerimeter;whiteSpace=wrap;html=1;fixedSize=1;" vertex="1" parent="1">
          <mxGeometry x="1765" y="4318" width="120" height="60" as="geometry" />
        </mxCell>
        <mxCell id="4O4_IYTXsJNH0Z4pezqd-57" value="" style="edgeStyle=none;curved=1;rounded=0;orthogonalLoop=1;jettySize=auto;html=1;fontSize=12;startSize=8;endSize=8;" edge="1" parent="1" source="4O4_IYTXsJNH0Z4pezqd-58">
          <mxGeometry relative="1" as="geometry">
            <mxPoint x="1827.23" y="4552" as="targetPoint" />
          </mxGeometry>
        </mxCell>
        <mxCell id="4O4_IYTXsJNH0Z4pezqd-58" value="mengecek saldo" style="rounded=1;whiteSpace=wrap;html=1;" vertex="1" parent="1">
          <mxGeometry x="1766.38" y="4437" width="120" height="60" as="geometry" />
        </mxCell>
        <mxCell id="4O4_IYTXsJNH0Z4pezqd-66" value="" style="edgeStyle=none;curved=1;rounded=0;orthogonalLoop=1;jettySize=auto;html=1;fontSize=12;startSize=8;endSize=8;" edge="1" parent="1" source="4O4_IYTXsJNH0Z4pezqd-61" target="4O4_IYTXsJNH0Z4pezqd-62">
          <mxGeometry relative="1" as="geometry" />
        </mxCell>
        <mxCell id="4O4_IYTXsJNH0Z4pezqd-70" value="" style="edgeStyle=none;curved=1;rounded=0;orthogonalLoop=1;jettySize=auto;html=1;fontSize=12;startSize=8;endSize=8;" edge="1" parent="1" source="4O4_IYTXsJNH0Z4pezqd-61" target="4O4_IYTXsJNH0Z4pezqd-69">
          <mxGeometry relative="1" as="geometry" />
        </mxCell>
        <mxCell id="4O4_IYTXsJNH0Z4pezqd-61" value="saldo cukup?" style="rhombus;whiteSpace=wrap;html=1;" vertex="1" parent="1">
          <mxGeometry x="1786.38" y="4552" width="80" height="80" as="geometry" />
        </mxCell>
        <mxCell id="4O4_IYTXsJNH0Z4pezqd-68" value="" style="edgeStyle=none;curved=1;rounded=0;orthogonalLoop=1;jettySize=auto;html=1;fontSize=12;startSize=8;endSize=8;" edge="1" parent="1" source="4O4_IYTXsJNH0Z4pezqd-62" target="4O4_IYTXsJNH0Z4pezqd-67">
          <mxGeometry relative="1" as="geometry" />
        </mxCell>
        <mxCell id="4O4_IYTXsJNH0Z4pezqd-62" value="output&quot; transaksi berhasil" style="shape=parallelogram;perimeter=parallelogramPerimeter;whiteSpace=wrap;html=1;fixedSize=1;" vertex="1" parent="1">
          <mxGeometry x="1766.38" y="4675" width="120" height="60" as="geometry" />
        </mxCell>
        <mxCell id="4O4_IYTXsJNH0Z4pezqd-65" value="" style="edgeStyle=none;curved=1;rounded=0;orthogonalLoop=1;jettySize=auto;html=1;fontSize=12;startSize=8;endSize=8;" edge="1" parent="1" source="4O4_IYTXsJNH0Z4pezqd-63" target="4O4_IYTXsJNH0Z4pezqd-64">
          <mxGeometry relative="1" as="geometry" />
        </mxCell>
        <mxCell id="4O4_IYTXsJNH0Z4pezqd-63" value="Keluar" style="ellipse;whiteSpace=wrap;html=1;aspect=fixed;fillColor=#e6d0de;gradientColor=#d5739d;strokeColor=#996185;" vertex="1" parent="1">
          <mxGeometry x="10.5" y="4509" width="80" height="80" as="geometry" />
        </mxCell>
        <mxCell id="4O4_IYTXsJNH0Z4pezqd-64" value="selesai" style="ellipse;whiteSpace=wrap;html=1;" vertex="1" parent="1">
          <mxGeometry x="-9.5" y="4649" width="120" height="80" as="geometry" />
        </mxCell>
        <mxCell id="4O4_IYTXsJNH0Z4pezqd-67" value="menu user" style="ellipse;whiteSpace=wrap;html=1;aspect=fixed;fillColor=#fad7ac;strokeColor=#b46504;" vertex="1" parent="1">
          <mxGeometry x="1786.37" y="4787" width="80" height="80" as="geometry" />
        </mxCell>
        <mxCell id="4O4_IYTXsJNH0Z4pezqd-72" value="" style="edgeStyle=none;curved=1;rounded=0;orthogonalLoop=1;jettySize=auto;html=1;fontSize=12;startSize=8;endSize=8;" edge="1" parent="1" source="4O4_IYTXsJNH0Z4pezqd-69" target="4O4_IYTXsJNH0Z4pezqd-71">
          <mxGeometry relative="1" as="geometry" />
        </mxCell>
        <mxCell id="4O4_IYTXsJNH0Z4pezqd-69" value="input&quot; saldo tidak cukup, silahkan tambah saldo dulu" style="shape=parallelogram;perimeter=parallelogramPerimeter;whiteSpace=wrap;html=1;fixedSize=1;" vertex="1" parent="1">
          <mxGeometry x="1946" y="4562" width="143" height="60" as="geometry" />
        </mxCell>
        <mxCell id="4O4_IYTXsJNH0Z4pezqd-71" value="menu user" style="ellipse;whiteSpace=wrap;html=1;aspect=fixed;fillColor=#fad7ac;strokeColor=#b46504;" vertex="1" parent="1">
          <mxGeometry x="2232" y="4552" width="80" height="80" as="geometry" />
        </mxCell>
        <mxCell id="4O4_IYTXsJNH0Z4pezqd-73" value="&lt;font style=&quot;font-size: 12px;&quot;&gt;YA&lt;/font&gt;" style="text;html=1;align=center;verticalAlign=middle;resizable=0;points=[];autosize=1;strokeColor=none;fillColor=none;fontSize=16;" vertex="1" parent="1">
          <mxGeometry x="1793.5" y="4623.5" width="33" height="31" as="geometry" />
        </mxCell>
        <mxCell id="4O4_IYTXsJNH0Z4pezqd-74" value="&lt;font style=&quot;font-size: 12px;&quot;&gt;TIDAK&lt;/font&gt;" style="text;html=1;align=center;verticalAlign=middle;resizable=0;points=[];autosize=1;strokeColor=none;fillColor=none;fontSize=16;" vertex="1" parent="1">
          <mxGeometry x="1847.5" y="4559.5" width="53" height="31" as="geometry" />
        </mxCell>
        <mxCell id="4O4_IYTXsJNH0Z4pezqd-75" value="menu user" style="ellipse;whiteSpace=wrap;html=1;aspect=fixed;fillColor=#fad7ac;strokeColor=#b46504;" vertex="1" parent="1">
          <mxGeometry x="1998" y="4194" width="80" height="80" as="geometry" />
        </mxCell>
        <mxCell id="4O4_IYTXsJNH0Z4pezqd-77" value="&lt;font style=&quot;font-size: 12px;&quot;&gt;TIDAK&lt;/font&gt;" style="text;html=1;align=center;verticalAlign=middle;resizable=0;points=[];autosize=1;strokeColor=none;fillColor=none;fontSize=16;" vertex="1" parent="1">
          <mxGeometry x="1866.37" y="4194" width="53" height="31" as="geometry" />
        </mxCell>
        <mxCell id="4O4_IYTXsJNH0Z4pezqd-79" value="&lt;font style=&quot;font-size: 12px;&quot;&gt;YA&lt;/font&gt;" style="text;html=1;align=center;verticalAlign=middle;resizable=0;points=[];autosize=1;strokeColor=none;fillColor=none;fontSize=16;" vertex="1" parent="1">
          <mxGeometry x="1777.87" y="4269" width="33" height="31" as="geometry" />
        </mxCell>
        <mxCell id="4O4_IYTXsJNH0Z4pezqd-82" value="&lt;font style=&quot;font-size: 12px;&quot;&gt;YA&lt;/font&gt;" style="text;html=1;align=center;verticalAlign=middle;resizable=0;points=[];autosize=1;strokeColor=none;fillColor=none;fontSize=16;" vertex="1" parent="1">
          <mxGeometry x="1791.9999999999998" y="3814" width="33" height="31" as="geometry" />
        </mxCell>
        <mxCell id="4O4_IYTXsJNH0Z4pezqd-83" value="&lt;font style=&quot;font-size: 12px;&quot;&gt;TIDAK&lt;/font&gt;" style="text;html=1;align=center;verticalAlign=middle;resizable=0;points=[];autosize=1;strokeColor=none;fillColor=none;fontSize=16;" vertex="1" parent="1">
          <mxGeometry x="1895" y="3741.5" width="53" height="31" as="geometry" />
        </mxCell>
        <mxCell id="4O4_IYTXsJNH0Z4pezqd-86" style="edgeStyle=none;curved=0;rounded=0;orthogonalLoop=1;jettySize=auto;html=1;entryX=1;entryY=0.5;entryDx=0;entryDy=0;fontSize=12;startSize=8;endSize=8;" edge="1" parent="1" source="4O4_IYTXsJNH0Z4pezqd-84" target="4O4_IYTXsJNH0Z4pezqd-31">
          <mxGeometry relative="1" as="geometry">
            <Array as="points">
              <mxPoint x="2149" y="3781" />
              <mxPoint x="2149" y="3400" />
            </Array>
          </mxGeometry>
        </mxCell>
        <mxCell id="4O4_IYTXsJNH0Z4pezqd-84" value="ouput&quot; input nama game yang benar" style="shape=parallelogram;perimeter=parallelogramPerimeter;whiteSpace=wrap;html=1;fixedSize=1;" vertex="1" parent="1">
          <mxGeometry x="1982" y="3751" width="120" height="60" as="geometry" />
        </mxCell>
        <mxCell id="4O4_IYTXsJNH0Z4pezqd-93" value="" style="edgeStyle=none;curved=1;rounded=0;orthogonalLoop=1;jettySize=auto;html=1;fontSize=12;startSize=8;endSize=8;" edge="1" parent="1" source="4O4_IYTXsJNH0Z4pezqd-88" target="4O4_IYTXsJNH0Z4pezqd-90">
          <mxGeometry relative="1" as="geometry" />
        </mxCell>
        <mxCell id="4O4_IYTXsJNH0Z4pezqd-88" value="output&quot; tabel game" style="shape=parallelogram;perimeter=parallelogramPerimeter;whiteSpace=wrap;html=1;fixedSize=1;" vertex="1" parent="1">
          <mxGeometry x="2319" y="3359.5" width="120" height="60" as="geometry" />
        </mxCell>
        <mxCell id="4O4_IYTXsJNH0Z4pezqd-95" value="" style="edgeStyle=none;curved=1;rounded=0;orthogonalLoop=1;jettySize=auto;html=1;fontSize=12;startSize=8;endSize=8;" edge="1" parent="1" source="4O4_IYTXsJNH0Z4pezqd-90" target="4O4_IYTXsJNH0Z4pezqd-94">
          <mxGeometry relative="1" as="geometry" />
        </mxCell>
        <mxCell id="4O4_IYTXsJNH0Z4pezqd-90" value="input&quot; nomor game" style="shape=parallelogram;perimeter=parallelogramPerimeter;whiteSpace=wrap;html=1;fixedSize=1;" vertex="1" parent="1">
          <mxGeometry x="2319" y="3463" width="120" height="60" as="geometry" />
        </mxCell>
        <mxCell id="4O4_IYTXsJNH0Z4pezqd-108" value="" style="edgeStyle=none;curved=1;rounded=0;orthogonalLoop=1;jettySize=auto;html=1;fontSize=12;startSize=8;endSize=8;" edge="1" parent="1" source="4O4_IYTXsJNH0Z4pezqd-94" target="4O4_IYTXsJNH0Z4pezqd-107">
          <mxGeometry relative="1" as="geometry" />
        </mxCell>
        <mxCell id="4O4_IYTXsJNH0Z4pezqd-94" value="sorting dari murah ke termahal" style="rounded=1;whiteSpace=wrap;html=1;" vertex="1" parent="1">
          <mxGeometry x="2319" y="3575" width="120" height="60" as="geometry" />
        </mxCell>
        <mxCell id="4O4_IYTXsJNH0Z4pezqd-101" value="" style="edgeStyle=none;curved=1;rounded=0;orthogonalLoop=1;jettySize=auto;html=1;fontSize=12;startSize=8;endSize=8;" edge="1" parent="1" source="4O4_IYTXsJNH0Z4pezqd-96" target="4O4_IYTXsJNH0Z4pezqd-100">
          <mxGeometry relative="1" as="geometry" />
        </mxCell>
        <mxCell id="4O4_IYTXsJNH0Z4pezqd-106" style="edgeStyle=none;curved=1;rounded=0;orthogonalLoop=1;jettySize=auto;html=1;fontSize=12;startSize=8;endSize=8;" edge="1" parent="1" source="4O4_IYTXsJNH0Z4pezqd-96" target="4O4_IYTXsJNH0Z4pezqd-104">
          <mxGeometry relative="1" as="geometry" />
        </mxCell>
        <mxCell id="4O4_IYTXsJNH0Z4pezqd-96" value="pil 6 = keluar" style="rhombus;whiteSpace=wrap;html=1;" vertex="1" parent="1">
          <mxGeometry x="2725" y="3229" width="80" height="80" as="geometry" />
        </mxCell>
        <mxCell id="4O4_IYTXsJNH0Z4pezqd-97" style="edgeStyle=none;curved=1;rounded=0;orthogonalLoop=1;jettySize=auto;html=1;entryX=0;entryY=0.5;entryDx=0;entryDy=0;fontSize=12;startSize=8;endSize=8;" edge="1" parent="1" source="4O4_IYTXsJNH0Z4pezqd-38" target="4O4_IYTXsJNH0Z4pezqd-96">
          <mxGeometry relative="1" as="geometry" />
        </mxCell>
        <mxCell id="4O4_IYTXsJNH0Z4pezqd-98" style="edgeStyle=none;curved=1;rounded=0;orthogonalLoop=1;jettySize=auto;html=1;exitX=1;exitY=0.5;exitDx=0;exitDy=0;entryX=0.887;entryY=0.505;entryDx=0;entryDy=0;entryPerimeter=0;fontSize=12;startSize=8;endSize=8;" edge="1" parent="1" source="4O4_IYTXsJNH0Z4pezqd-13" target="4O4_IYTXsJNH0Z4pezqd-13">
          <mxGeometry relative="1" as="geometry" />
        </mxCell>
        <mxCell id="4O4_IYTXsJNH0Z4pezqd-100" value="Main menu" style="ellipse;whiteSpace=wrap;html=1;aspect=fixed;fillColor=#008a00;fontColor=#ffffff;strokeColor=#005700;" vertex="1" parent="1">
          <mxGeometry x="2725" y="3355" width="80" height="80" as="geometry" />
        </mxCell>
        <mxCell id="4O4_IYTXsJNH0Z4pezqd-102" value="&lt;font style=&quot;font-size: 12px;&quot;&gt;YA&lt;/font&gt;" style="text;html=1;align=center;verticalAlign=middle;resizable=0;points=[];autosize=1;strokeColor=none;fillColor=none;fontSize=16;" vertex="1" parent="1">
          <mxGeometry x="2725" y="3312" width="33" height="31" as="geometry" />
        </mxCell>
        <mxCell id="4O4_IYTXsJNH0Z4pezqd-103" value="&lt;font style=&quot;font-size: 12px;&quot;&gt;TIDAK&lt;/font&gt;" style="text;html=1;align=center;verticalAlign=middle;resizable=0;points=[];autosize=1;strokeColor=none;fillColor=none;fontSize=16;" vertex="1" parent="1">
          <mxGeometry x="2809" y="3229.5" width="53" height="31" as="geometry" />
        </mxCell>
        <mxCell id="4O4_IYTXsJNH0Z4pezqd-104" value="menu user" style="ellipse;whiteSpace=wrap;html=1;aspect=fixed;fillColor=#fad7ac;strokeColor=#b46504;" vertex="1" parent="1">
          <mxGeometry x="2875" y="3229" width="80" height="80" as="geometry" />
        </mxCell>
        <mxCell id="4O4_IYTXsJNH0Z4pezqd-110" value="" style="edgeStyle=none;curved=1;rounded=0;orthogonalLoop=1;jettySize=auto;html=1;fontSize=12;startSize=8;endSize=8;" edge="1" parent="1" source="4O4_IYTXsJNH0Z4pezqd-107" target="4O4_IYTXsJNH0Z4pezqd-109">
          <mxGeometry relative="1" as="geometry" />
        </mxCell>
        <mxCell id="4O4_IYTXsJNH0Z4pezqd-107" value="json" style="shape=cylinder3;whiteSpace=wrap;html=1;boundedLbl=1;backgroundOutline=1;size=15;" vertex="1" parent="1">
          <mxGeometry x="2339" y="3670" width="82" height="93" as="geometry" />
        </mxCell>
        <mxCell id="4O4_IYTXsJNH0Z4pezqd-112" value="" style="edgeStyle=none;curved=1;rounded=0;orthogonalLoop=1;jettySize=auto;html=1;fontSize=12;startSize=8;endSize=8;" edge="1" parent="1" source="4O4_IYTXsJNH0Z4pezqd-109" target="4O4_IYTXsJNH0Z4pezqd-111">
          <mxGeometry relative="1" as="geometry" />
        </mxCell>
        <mxCell id="4O4_IYTXsJNH0Z4pezqd-109" value="ouput&quot; pakettopup dari murah ke termahal" style="shape=parallelogram;perimeter=parallelogramPerimeter;whiteSpace=wrap;html=1;fixedSize=1;" vertex="1" parent="1">
          <mxGeometry x="2319" y="3804" width="120" height="60" as="geometry" />
        </mxCell>
        <mxCell id="4O4_IYTXsJNH0Z4pezqd-111" value="menu user" style="ellipse;whiteSpace=wrap;html=1;aspect=fixed;fillColor=#fad7ac;strokeColor=#b46504;" vertex="1" parent="1">
          <mxGeometry x="2339" y="3902.5" width="80" height="80" as="geometry" />
        </mxCell>
      </root>
    </mxGraphModel>
  </diagram>
</mxfile>
